AlkalamiMaster-Light.ufo
<glyph name="asterisk" format="1">
  <advance width="420"/>
  <unicode hex="002A"/>
  <outline>
    <contour>
      <point x="211" y="341" type="line"/>
      <point x="234" y="365" type="line"/>
      <point x="234" y="391"/>
      <point x="225" y="427"/>
      <point x="220" y="458" type="curve"/>
      <point x="239" y="433"/>
      <point x="257" y="402"/>
      <point x="276" y="383" type="curve"/>
      <point x="311" y="383" type="line"/>
      <point x="311" y="416" type="line"/>
      <point x="291" y="435"/>
      <point x="260" y="454"/>
      <point x="235" y="473" type="curve"/>
      <point x="266" y="468"/>
      <point x="301" y="458"/>
      <point x="327" y="458" type="curve"/>
      <point x="352" y="483" type="line"/>
      <point x="328" y="507" type="line"/>
      <point x="301" y="507"/>
      <point x="266" y="498"/>
      <point x="235" y="493" type="curve"/>
      <point x="260" y="512"/>
      <point x="291" y="530"/>
      <point x="311" y="549" type="curve"/>
      <point x="311" y="583" type="line"/>
      <point x="276" y="583" type="line"/>
      <point x="258" y="565"/>
      <point x="239" y="532"/>
      <point x="220" y="507" type="curve"/>
      <point x="225" y="538"/>
      <point x="234" y="574"/>
      <point x="234" y="600" type="curve"/>
      <point x="211" y="625" type="line"/>
      <point x="186" y="600" type="line"/>
      <point x="186" y="574"/>
      <point x="195" y="538"/>
      <point x="200" y="507" type="curve"/>
      <point x="181" y="533"/>
      <point x="163" y="565"/>
      <point x="144" y="583" type="curve"/>
      <point x="110" y="583" type="line"/>
      <point x="110" y="549" type="line"/>
      <point x="129" y="530"/>
      <point x="161" y="512"/>
      <point x="185" y="493" type="curve"/>
      <point x="155" y="498"/>
      <point x="120" y="507"/>
      <point x="93" y="507" type="curve"/>
      <point x="68" y="482" type="line"/>
      <point x="92" y="458" type="line"/>
      <point x="120" y="458"/>
      <point x="155" y="468"/>
      <point x="186" y="473" type="curve"/>
      <point x="161" y="454"/>
      <point x="129" y="435"/>
      <point x="110" y="416" type="curve"/>
      <point x="110" y="383" type="line"/>
      <point x="144" y="383" type="line"/>
      <point x="163" y="401"/>
      <point x="181" y="433"/>
      <point x="200" y="457" type="curve"/>
      <point x="195" y="426"/>
      <point x="186" y="391"/>
      <point x="186" y="365" type="curve"/>
    </contour>
  </outline>
</glyph>
<glyph name="plus" format="1">
  <advance width="521"/>
  <unicode hex="002B"/>
  <outline>
    <contour>
      <point x="496" y="361" type="line"/>
      <point x="355" y="358"/>
      <point x="166" y="358"/>
      <point x="25" y="361" type="curve"/>
      <point x="25" y="298" type="line"/>
      <point x="166" y="301"/>
      <point x="355" y="301"/>
      <point x="496" y="298" type="curve"/>
    </contour>
    <contour>
      <point x="292" y="94" type="line"/>
      <point x="289" y="235"/>
      <point x="289" y="424"/>
      <point x="292" y="565" type="curve"/>
      <point x="229" y="565" type="line"/>
      <point x="232" y="424"/>
      <point x="232" y="235"/>
      <point x="229" y="94" type="curve"/>
    </contour>
  </outline>
</glyph>
<glyph name="comma" format="1">
  <advance width="216"/>
  <unicode hex="002C"/>
  <outline>
    <contour>
      <point x="-5" y="-148" type="curve"/>
      <point x="20" y="-180" type="line"/>
      <point x="148" y="-85"/>
      <point x="181" y="-5"/>
      <point x="181" y="53" type="curve" smooth="yes"/>
      <point x="181" y="70"/>
      <point x="178" y="86"/>
      <point x="173" y="100" type="curve"/>
      <point x="158" y="106"/>
      <point x="141" y="109"/>
      <point x="121" y="109" type="curve" smooth="yes"/>
      <point x="101" y="109"/>
      <point x="87" y="105"/>
      <point x="72" y="99" type="curve"/>
      <point x="68" y="86"/>
      <point x="66" y="70"/>
      <point x="66" y="54" type="curve" smooth="yes"/>
      <point x="66" y="37"/>
      <point x="68" y="20"/>
      <point x="72" y="3" type="curve"/>
      <point x="81" y="0"/>
      <point x="98" y="-4"/>
      <point x="109" y="-5" type="curve"/>
      <point x="101" y="-35"/>
      <point x="70" y="-88"/>
    </contour>
  </outline>
</glyph>
<glyph name="less" format="1">
  <advance width="535"/>
  <unicode hex="003C"/>
  <outline>
    <contour>
      <point x="35" y="360" type="line"/>
      <point x="35" y="310" type="line"/>
      <point x="500" y="89" type="line"/>
      <point x="500" y="151" type="line"/>
      <point x="77" y="351" type="line"/>
      <point x="77" y="318" type="line"/>
      <point x="500" y="520" type="line"/>
      <point x="500" y="580" type="line"/>
    </contour>
  </outline>
</glyph>
<glyph name="H" format="1">
  <advance width="719"/>
  <unicode hex="0048"/>
  <outline>
    <contour>
      <point x="280" y="660" type="line"/>
      <point x="238" y="657"/>
      <point x="198" y="656"/>
      <point x="155" y="656" type="curve" smooth="yes"/>
      <point x="116" y="656"/>
      <point x="74" y="658"/>
      <point x="33" y="660" type="curve"/>
      <point x="23" y="629" type="line"/>
      <point x="111" y="608" type="line"/>
      <point x="114" y="520"/>
      <point x="116" y="426"/>
      <point x="116" y="332" type="curve" smooth="yes"/>
      <point x="116" y="238"/>
      <point x="114" y="143"/>
      <point x="111" y="51" type="curve"/>
      <point x="23" y="30" type="line"/>
      <point x="33" y="0" type="line"/>
      <point x="74" y="1"/>
      <point x="116" y="3"/>
      <point x="155" y="3" type="curve" smooth="yes"/>
      <point x="201" y="3"/>
      <point x="233" y="2"/>
      <point x="280" y="0" type="curve"/>
      <point x="291" y="30" type="line"/>
      <point x="203" y="51" type="line"/>
      <point x="203" y="145"/>
      <point x="202" y="240"/>
      <point x="202" y="334" type="curve" smooth="yes"/>
      <point x="202" y="428"/>
      <point x="203" y="521"/>
      <point x="203" y="608" type="curve"/>
      <point x="291" y="629" type="line"/>
    </contour>
    <contour>
      <point x="546" y="365" type="line"/>
      <point x="463" y="359"/>
      <point x="416" y="359"/>
      <point x="355" y="359" type="curve" smooth="yes"/>
      <point x="291" y="359"/>
      <point x="251" y="359"/>
      <point x="176" y="364" type="curve"/>
      <point x="176" y="304" type="line"/>
      <point x="251" y="309"/>
      <point x="291" y="309"/>
      <point x="355" y="309" type="curve" smooth="yes"/>
      <point x="416" y="309"/>
      <point x="463" y="309"/>
      <point x="546" y="304" type="curve"/>
    </contour>
    <contour>
      <point x="687" y="660" type="line"/>
      <point x="645" y="657"/>
      <point x="605" y="656"/>
      <point x="562" y="656" type="curve" smooth="yes"/>
      <point x="523" y="656"/>
      <point x="481" y="658"/>
      <point x="440" y="660" type="curve"/>
      <point x="430" y="629" type="line"/>
      <point x="518" y="608" type="line"/>
      <point x="521" y="520"/>
      <point x="523" y="426"/>
      <point x="523" y="332" type="curve" smooth="yes"/>
      <point x="523" y="238"/>
      <point x="521" y="143"/>
      <point x="518" y="51" type="curve"/>
      <point x="430" y="30" type="line"/>
      <point x="440" y="0" type="line"/>
      <point x="481" y="1"/>
      <point x="523" y="3"/>
      <point x="562" y="3" type="curve" smooth="yes"/>
      <point x="608" y="3"/>
      <point x="640" y="2"/>
      <point x="687" y="0" type="curve"/>
      <point x="698" y="30" type="line"/>
      <point x="610" y="51" type="line"/>
      <point x="610" y="145"/>
      <point x="609" y="240"/>
      <point x="609" y="334" type="curve" smooth="yes"/>
      <point x="609" y="428"/>
      <point x="610" y="521"/>
      <point x="610" y="608" type="curve"/>
      <point x="698" y="629" type="line"/>
    </contour>
  </outline>
</glyph>
<glyph name="K" format="1">
  <advance width="657"/>
  <unicode hex="004B"/>
  <outline>
    <contour>
      <point x="281" y="660" type="line"/>
      <point x="225" y="658"/>
      <point x="191" y="657"/>
      <point x="159" y="657" type="curve" smooth="yes"/>
      <point x="124" y="657"/>
      <point x="84" y="658"/>
      <point x="33" y="660" type="curve"/>
      <point x="23" y="629" type="line"/>
      <point x="111" y="608" type="line"/>
      <point x="115" y="539"/>
      <point x="116" y="404"/>
      <point x="116" y="323" type="curve" smooth="yes"/>
      <point x="116" y="222"/>
      <point x="114" y="171"/>
      <point x="111" y="51" type="curve"/>
      <point x="23" y="30" type="line"/>
      <point x="33" y="0" type="line"/>
      <point x="74" y="1"/>
      <point x="123" y="3"/>
      <point x="158" y="3" type="curve" smooth="yes"/>
      <point x="211" y="3"/>
      <point x="245" y="2"/>
      <point x="281" y="0" type="curve"/>
      <point x="292" y="30" type="line"/>
      <point x="204" y="51" type="line"/>
      <point x="202" y="132"/>
      <point x="202" y="259"/>
      <point x="202" y="323" type="curve" smooth="yes"/>
      <point x="202" y="432"/>
      <point x="203" y="471"/>
      <point x="204" y="608" type="curve"/>
      <point x="292" y="629" type="line"/>
    </contour>
    <contour>
      <point x="209" y="327" type="curve"/>
      <point x="301" y="213"/>
      <point x="359" y="136"/>
      <point x="464" y="1" type="curve"/>
      <point x="486" y="1"/>
      <point x="511" y="3"/>
      <point x="545" y="3" type="curve" smooth="yes"/>
      <point x="571" y="3"/>
      <point x="598" y="2"/>
      <point x="639" y="0" type="curve"/>
      <point x="650" y="31" type="line"/>
      <point x="551" y="52" type="line"/>
      <point x="451" y="165"/>
      <point x="377" y="259"/>
      <point x="294" y="368" type="curve"/>
      <point x="278" y="321" type="line"/>
      <point x="358" y="406"/>
      <point x="450" y="504"/>
      <point x="553" y="610" type="curve"/>
      <point x="634" y="629" type="line"/>
      <point x="623" y="660" type="line"/>
      <point x="587" y="658"/>
      <point x="547" y="657"/>
      <point x="511" y="657" type="curve" smooth="yes"/>
      <point x="475" y="657"/>
      <point x="434" y="657"/>
      <point x="389" y="660" type="curve"/>
      <point x="379" y="631" type="line"/>
      <point x="460" y="610" type="line"/>
      <point x="379" y="503"/>
      <point x="326" y="438"/>
    </contour>
  </outline>
</glyph>
<glyph name="P" format="1">
  <advance width="554"/>
  <unicode hex="0050"/>
  <outline>
    <contour>
      <point x="448" y="660"/>
      <point x="514" y="569"/>
      <point x="514" y="474" type="curve" smooth="yes"/>
      <point x="514" y="371"/>
      <point x="440" y="263"/>
      <point x="281" y="263" type="curve" smooth="yes"/>
      <point x="256" y="263"/>
      <point x="230" y="266"/>
      <point x="185" y="275" type="curve"/>
      <point x="185" y="338" type="line"/>
      <point x="220" y="319"/>
      <point x="255" y="311"/>
      <point x="290" y="311" type="curve" smooth="yes"/>
      <point x="302" y="311"/>
      <point x="315" y="312"/>
      <point x="327" y="314" type="curve"/>
      <point x="385" y="338"/>
      <point x="416" y="399"/>
      <point x="416" y="461" type="curve" smooth="yes"/>
      <point x="416" y="537"/>
      <point x="370" y="612"/>
      <point x="287" y="612" type="curve" smooth="yes"/>
      <point x="260" y="612"/>
      <point x="220" y="607"/>
      <point x="204" y="601" type="curve"/>
      <point x="203" y="443"/>
      <point x="202" y="349"/>
      <point x="202" y="242" type="curve" smooth="yes"/>
      <point x="202" y="180"/>
      <point x="202" y="119"/>
      <point x="204" y="51" type="curve"/>
      <point x="297" y="30" type="line"/>
      <point x="286" y="0" type="line"/>
      <point x="247" y="2"/>
      <point x="202" y="3"/>
      <point x="135" y="3" type="curve" smooth="yes"/>
      <point x="108" y="3"/>
      <point x="68" y="1"/>
      <point x="33" y="0" type="curve"/>
      <point x="23" y="30" type="line"/>
      <point x="111" y="51" type="line"/>
      <point x="114" y="155"/>
      <point x="118" y="272"/>
      <point x="118" y="381" type="curve" smooth="yes"/>
      <point x="118" y="464"/>
      <point x="116" y="543"/>
      <point x="111" y="608" type="curve"/>
      <point x="23" y="629" type="line"/>
      <point x="33" y="660" type="line"/>
      <point x="74" y="659"/>
      <point x="124" y="656"/>
      <point x="155" y="656" type="curve" smooth="yes"/>
      <point x="217" y="656"/>
      <point x="252" y="660"/>
      <point x="313" y="660" type="curve" smooth="yes"/>
    </contour>
  </outline>
</glyph>
<glyph name="Z" format="1">
  <advance width="560"/>
  <unicode hex="005A"/>
  <outline>
    <contour>
      <point x="67" y="0" type="curve"/>
      <point x="119" y="2"/>
      <point x="193" y="3"/>
      <point x="273" y="3" type="curve" smooth="yes"/>
      <point x="346" y="3"/>
      <point x="420" y="2"/>
      <point x="485" y="0" type="curve"/>
      <point x="494" y="57"/>
      <point x="504" y="107"/>
      <point x="520" y="172" type="curve"/>
      <point x="476" y="185" type="line"/>
      <point x="453" y="140"/>
      <point x="436" y="111"/>
      <point x="409" y="73" type="curve"/>
      <point x="363" y="58"/>
      <point x="311" y="54"/>
      <point x="262" y="54" type="curve" smooth="yes"/>
      <point x="229" y="54"/>
      <point x="198" y="55"/>
      <point x="170" y="58" type="curve"/>
      <point x="257" y="215"/>
      <point x="368" y="403"/>
      <point x="509" y="618" type="curve"/>
      <point x="502" y="634"/>
      <point x="494" y="645"/>
      <point x="484" y="660" type="curve"/>
      <point x="418" y="656"/>
      <point x="350" y="656"/>
      <point x="280" y="656" type="curve" smooth="yes"/>
      <point x="211" y="656"/>
      <point x="162" y="656"/>
      <point x="68" y="660" type="curve"/>
      <point x="68" y="600"/>
      <point x="65" y="547"/>
      <point x="61" y="477" type="curve"/>
      <point x="105" y="477" type="line"/>
      <point x="121" y="520"/>
      <point x="133" y="553"/>
      <point x="149" y="586" type="curve"/>
      <point x="197" y="601"/>
      <point x="250" y="605"/>
      <point x="301" y="605" type="curve" smooth="yes"/>
      <point x="331" y="605"/>
      <point x="361" y="603"/>
      <point x="387" y="601" type="curve"/>
      <point x="298" y="442"/>
      <point x="177" y="237"/>
      <point x="40" y="36" type="curve"/>
      <point x="47" y="22"/>
      <point x="56" y="10"/>
    </contour>
  </outline>
</glyph>
<glyph name="asciicircum" format="1">
  <advance width="511"/>
  <unicode hex="005E"/>
  <outline>
    <contour>
      <point x="279" y="671" type="curve"/>
      <point x="247" y="671" type="line"/>
      <point x="177" y="553"/>
      <point x="103" y="434"/>
      <point x="25" y="316" type="curve"/>
      <point x="93" y="316" type="line"/>
      <point x="267" y="589" type="line"/>
      <point x="253" y="589" type="line"/>
      <point x="419" y="316" type="line"/>
      <point x="486" y="316" type="line"/>
      <point x="413" y="434"/>
      <point x="344" y="553"/>
    </contour>
  </outline>
</glyph>
<glyph name="underscore" format="1">
  <advance width="559"/>
  <unicode hex="005F"/>
  <outline>
    <contour>
      <point x="492" y="36" type="line"/>
      <point x="68" y="36" type="line"/>
      <point x="68" y="-9" type="line"/>
      <point x="492" y="-9" type="line"/>
    </contour>
  </outline>
</glyph>
<glyph name="grave" format="1">
  <advance width="176"/>
  <unicode hex="0060"/>
  <outline>
    <contour>
      <point x="44" y="690" type="curve"/>
      <point x="27" y="679"/>
      <point x="15" y="669"/>
      <point x="0" y="647" type="curve"/>
      <point x="36" y="589"/>
      <point x="73" y="533"/>
      <point x="130" y="466" type="curve"/>
      <point x="161" y="486" type="line"/>
      <point x="116" y="566"/>
      <point x="98" y="615"/>
      <point x="79" y="678" type="curve"/>
      <point x="68" y="682"/>
      <point x="55" y="686"/>
    </contour>
    <contour>
      <point x="101" y="430" type="move" name="_top"/>
    </contour>
  </outline>
</glyph>
<glyph name="l" format="1">
  <advance width="269"/>
  <unicode hex="006C"/>
  <outline>
    <contour>
      <point x="176" y="745" type="curve"/>
      <point x="115" y="733"/>
      <point x="50" y="728"/>
      <point x="4" y="725" type="curve"/>
      <point x="15" y="696" type="line"/>
      <point x="87" y="683" type="line"/>
      <point x="93" y="528"/>
      <point x="96" y="261"/>
      <point x="91" y="48" type="curve"/>
      <point x="11" y="27" type="line"/>
      <point x="22" y="0" type="line"/>
      <point x="52" y="1"/>
      <point x="96" y="2"/>
      <point x="136" y="2" type="curve" smooth="yes"/>
      <point x="178" y="2"/>
      <point x="217" y="1"/>
      <point x="247" y="0" type="curve"/>
      <point x="258" y="27" type="line"/>
      <point x="179" y="48" type="line"/>
      <point x="175" y="265"/>
      <point x="175" y="518"/>
    </contour>
    <contour>
      <point x="112" y="0" type="move" name="bottom"/>
    </contour>
    <contour>
      <point x="132" y="365" type="move" name="top"/>
    </contour>
    <contour>
      <point x="229" y="605" type="move" name="topright"/>
    </contour>
  </outline>
</glyph>
<glyph name="p" format="1">
  <advance width="526"/>
  <unicode hex="0070"/>
  <outline>
    <contour>
      <point x="169" y="434" type="curve"/>
      <point x="108" y="421"/>
      <point x="50" y="419"/>
      <point x="4" y="417" type="curve"/>
      <point x="15" y="386" type="line"/>
      <point x="87" y="374" type="line"/>
      <point x="93" y="233"/>
      <point x="95" y="133"/>
      <point x="95" y="42" type="curve" smooth="yes"/>
      <point x="95" y="-66"/>
      <point x="95" y="-141"/>
      <point x="91" y="-211" type="curve"/>
      <point x="12" y="-232" type="line"/>
      <point x="22" y="-260" type="line"/>
      <point x="62" y="-258"/>
      <point x="91" y="-256"/>
      <point x="136" y="-256" type="curve" smooth="yes"/>
      <point x="183" y="-256"/>
      <point x="212" y="-257"/>
      <point x="268" y="-260" type="curve"/>
      <point x="279" y="-232" type="line"/>
      <point x="179" y="-211" type="line"/>
      <point x="175" y="20"/>
      <point x="173" y="110"/>
      <point x="173" y="205" type="curve" smooth="yes"/>
      <point x="173" y="245"/>
      <point x="174" y="283"/>
      <point x="174" y="325" type="curve" smooth="yes"/>
      <point x="174" y="356"/>
      <point x="172" y="393"/>
    </contour>
    <contour>
      <point x="316" y="437" type="curve" smooth="yes"/>
      <point x="227" y="437"/>
      <point x="145" y="356"/>
      <point x="143" y="278" type="curve"/>
      <point x="172" y="229" type="line"/>
      <point x="170" y="311"/>
      <point x="226" y="368"/>
      <point x="279" y="383" type="curve"/>
      <point x="369" y="372"/>
      <point x="402" y="299"/>
      <point x="402" y="207" type="curve" smooth="yes"/>
      <point x="402" y="128"/>
      <point x="363" y="51"/>
      <point x="287" y="51" type="curve" smooth="yes"/>
      <point x="235" y="51"/>
      <point x="180" y="78"/>
      <point x="142" y="155" type="curve"/>
      <point x="126" y="114" type="line"/>
      <point x="163" y="36"/>
      <point x="233" y="-6"/>
      <point x="303" y="-6" type="curve" smooth="yes"/>
      <point x="398" y="-6"/>
      <point x="491" y="68"/>
      <point x="491" y="224" type="curve" smooth="yes"/>
      <point x="491" y="364"/>
      <point x="416" y="437"/>
    </contour>
  </outline>
</glyph>
<glyph name="r" format="1">
  <advance width="407"/>
  <unicode hex="0072"/>
  <outline>
    <contour>
      <point x="171" y="434" type="curve"/>
      <point x="111" y="422"/>
      <point x="55" y="418"/>
      <point x="9" y="417" type="curve"/>
      <point x="20" y="386" type="line"/>
      <point x="92" y="372" type="line"/>
      <point x="97" y="302"/>
      <point x="100" y="272"/>
      <point x="101" y="226" type="curve" smooth="yes"/>
      <point x="102" y="167"/>
      <point x="98" y="113"/>
      <point x="96" y="48" type="curve"/>
      <point x="17" y="27" type="line"/>
      <point x="28" y="0" type="line"/>
      <point x="67" y="1"/>
      <point x="101" y="3"/>
      <point x="142" y="3" type="curve" smooth="yes"/>
      <point x="189" y="3"/>
      <point x="239" y="2"/>
      <point x="274" y="0" type="curve"/>
      <point x="285" y="27" type="line"/>
      <point x="184" y="51" type="line"/>
      <point x="179" y="289" type="line"/>
      <point x="180" y="297"/>
      <point x="180" y="305"/>
      <point x="181" y="311" type="curve" smooth="yes"/>
      <point x="183" y="358"/>
      <point x="176" y="399"/>
    </contour>
    <contour>
      <point x="316" y="436" type="curve" smooth="yes"/>
      <point x="252" y="436"/>
      <point x="157" y="352"/>
      <point x="156" y="222" type="curve"/>
      <point x="181" y="164" type="line"/>
      <point x="181" y="298"/>
      <point x="244" y="356"/>
      <point x="274" y="363" type="curve"/>
      <point x="307" y="358"/>
      <point x="329" y="326"/>
      <point x="339" y="274" type="curve"/>
      <point x="371" y="275" type="line"/>
      <point x="378" y="326"/>
      <point x="385" y="372"/>
      <point x="387" y="402" type="curve"/>
      <point x="374" y="425"/>
      <point x="346" y="436"/>
    </contour>
    <contour>
      <point x="143" y="0" type="move" name="bottom"/>
    </contour>
    <contour>
      <point x="203" y="430" type="move" name="top"/>
    </contour>
  </outline>
</glyph>
<glyph name="t" format="1">
  <advance width="319"/>
  <unicode hex="0074"/>
  <outline>
    <contour>
      <point x="182" y="542" type="curve"/>
      <point x="151" y="542" type="line"/>
      <point x="129" y="501"/>
      <point x="115" y="470"/>
      <point x="93" y="431" type="curve"/>
      <point x="68" y="424"/>
      <point x="48" y="420"/>
      <point x="19" y="417" type="curve"/>
      <point x="18" y="399"/>
      <point x="92" y="418"/>
      <point x="94" y="389" type="curve" smooth="yes"/>
      <point x="97" y="352"/>
      <point x="96" y="315"/>
      <point x="96" y="278" type="curve" smooth="yes"/>
      <point x="96" y="197"/>
      <point x="94" y="131"/>
      <point x="94" y="91" type="curve" smooth="yes"/>
      <point x="94" y="19"/>
      <point x="133" y="-6"/>
      <point x="182" y="-6" type="curve" smooth="yes"/>
      <point x="229" y="-6"/>
      <point x="286" y="31"/>
      <point x="324" y="66" type="curve"/>
      <point x="309" y="92" type="line"/>
      <point x="281" y="73"/>
      <point x="252" y="62"/>
      <point x="227" y="62" type="curve" smooth="yes"/>
      <point x="200" y="62"/>
      <point x="183" y="78"/>
      <point x="180" y="128" type="curve" smooth="yes"/>
      <point x="177" y="176"/>
      <point x="177" y="244"/>
      <point x="177" y="295" type="curve" smooth="yes"/>
      <point x="177" y="359"/>
      <point x="179" y="429"/>
    </contour>
    <contour>
      <point x="306" y="418" type="line"/>
      <point x="19" y="417" type="line"/>
      <point x="9" y="385" type="line"/>
      <point x="139" y="378"/>
      <point x="231" y="375"/>
      <point x="313" y="370" type="curve"/>
    </contour>
    <contour>
      <point x="173" y="0" type="move" name="bottom"/>
    </contour>
    <contour>
      <point x="140" y="237" type="move" name="center"/>
    </contour>
    <contour>
      <point x="237" y="477" type="move" name="topright"/>
    </contour>
  </outline>
</glyph>
<glyph name="v" format="1">
  <advance width="529"/>
  <unicode hex="0076"/>
  <outline>
    <contour>
      <point x="239" y="419" type="line"/>
      <point x="204" y="417"/>
      <point x="181" y="416"/>
      <point x="124" y="416" type="curve" smooth="yes"/>
      <point x="73" y="416"/>
      <point x="50" y="417"/>
      <point x="10" y="419" type="curve"/>
      <point x="0" y="393" type="line"/>
      <point x="77" y="372" type="line"/>
      <point x="141" y="228"/>
      <point x="171" y="158"/>
      <point x="240" y="-9" type="curve"/>
      <point x="263" y="-9"/>
      <point x="294" y="67"/>
      <point x="289" y="94" type="curve"/>
      <point x="234" y="209"/>
      <point x="212" y="261"/>
      <point x="177" y="372" type="curve"/>
      <point x="250" y="393" type="line"/>
    </contour>
    <contour>
      <point x="519" y="419" type="line"/>
      <point x="480" y="416"/>
      <point x="463" y="416"/>
      <point x="429" y="416" type="curve" smooth="yes"/>
      <point x="393" y="416"/>
      <point x="366" y="417"/>
      <point x="325" y="419" type="curve"/>
      <point x="314" y="393" type="line"/>
      <point x="388" y="372" type="line"/>
      <point x="348" y="238"/>
      <point x="291" y="105"/>
      <point x="240" y="-9" type="curve"/>
      <point x="295" y="-9" type="line"/>
      <point x="342" y="112"/>
      <point x="398" y="236"/>
      <point x="451" y="372" type="curve"/>
      <point x="529" y="393" type="line"/>
    </contour>
  </outline>
</glyph>
<glyph name="braceleft" format="1">
  <advance width="232"/>
  <unicode hex="007B"/>
  <outline>
    <contour>
      <point x="20" y="357" type="line"/>
      <point x="53" y="346"/>
      <point x="77" y="325"/>
      <point x="77" y="292" type="curve" smooth="yes"/>
      <point x="77" y="200"/>
      <point x="40" y="139"/>
      <point x="40" y="84" type="curve" smooth="yes"/>
      <point x="40" y="32"/>
      <point x="81" y="-13"/>
      <point x="178" y="-75" type="curve"/>
      <point x="187" y="-64"/>
      <point x="190" y="-59"/>
      <point x="197" y="-45" type="curve"/>
      <point x="134" y="-5"/>
      <point x="123" y="25"/>
      <point x="123" y="46" type="curve" smooth="yes"/>
      <point x="123" y="100"/>
      <point x="156" y="163"/>
      <point x="156" y="238" type="curve" smooth="yes"/>
      <point x="156" y="301"/>
      <point x="113" y="340"/>
      <point x="66" y="369" type="curve"/>
      <point x="113" y="398"/>
      <point x="156" y="437"/>
      <point x="156" y="500" type="curve" smooth="yes"/>
      <point x="156" y="575"/>
      <point x="123" y="638"/>
      <point x="123" y="692" type="curve" smooth="yes"/>
      <point x="123" y="713"/>
      <point x="134" y="743"/>
      <point x="197" y="783" type="curve"/>
      <point x="190" y="797"/>
      <point x="187" y="802"/>
      <point x="178" y="813" type="curve"/>
      <point x="81" y="751"/>
      <point x="40" y="706"/>
      <point x="40" y="654" type="curve" smooth="yes"/>
      <point x="40" y="599"/>
      <point x="77" y="538"/>
      <point x="77" y="446" type="curve" smooth="yes"/>
      <point x="77" y="413"/>
      <point x="53" y="392"/>
      <point x="20" y="381" type="curve"/>
    </contour>
  </outline>
</glyph>
<glyph name="nbspace" format="1">
  <advance width="200"/>
  <unicode hex="00A0"/>
  <outline>
    <contour>
      <point x="101" y="-60" type="move" name="bottom"/>
    </contour>
    <contour>
      <point x="98" y="305" type="move" name="top"/>
    </contour>
  </outline>
</glyph>
<glyph name="ordfeminine" format="1">
  <advance width="349"/>
  <unicode hex="00AA"/>
  <outline>
    <contour>
      <point x="23" y="316" type="curve"/>
      <point x="23" y="284" type="line"/>
      <point x="100" y="286"/>
      <point x="225" y="286"/>
      <point x="302" y="284" type="curve"/>
      <point x="302" y="316" type="line"/>
      <point x="225" y="314"/>
      <point x="100" y="314"/>
    </contour>
    <component base="a" xScale="0.751" yScale="0.751" xOffset="-15" yOffset="352"/>
  </outline>
</glyph>
<glyph name="micro" format="1">
  <advance width="550"/>
  <unicode hex="00B5"/>
  <outline>
    <contour>
      <point x="150" y="429" type="curve"/>
      <point x="64" y="429" type="line"/>
      <point x="68" y="333"/>
      <point x="64" y="196"/>
      <point x="67" y="151" type="curve" smooth="yes"/>
      <point x="71" y="55"/>
      <point x="118" y="-15"/>
      <point x="193" y="-15" type="curve" smooth="yes"/>
      <point x="259" y="-15"/>
      <point x="342" y="81"/>
      <point x="355" y="188" type="curve"/>
      <point x="327" y="231" type="line"/>
      <point x="327" y="131"/>
      <point x="253" y="62"/>
      <point x="222" y="49" type="curve"/>
      <point x="175" y="49"/>
      <point x="143" y="110"/>
      <point x="140" y="171" type="curve" smooth="yes"/>
      <point x="136" y="249"/>
      <point x="147" y="372"/>
    </contour>
    <contour>
      <point x="107" y="182" type="curve"/>
      <point x="67" y="182" type="line"/>
      <point x="67" y="124"/>
      <point x="60" y="-77"/>
      <point x="75" y="-208" type="curve"/>
      <point x="108" y="-208"/>
      <point x="154" y="-208"/>
      <point x="188" y="-178" type="curve"/>
      <point x="136" y="-129"/>
      <point x="90" y="-57"/>
    </contour>
    <contour>
      <point x="407" y="429" type="curve"/>
      <point x="320" y="429" type="line"/>
      <point x="327" y="311"/>
      <point x="327" y="259"/>
      <point x="327" y="151" type="curve" smooth="yes"/>
      <point x="327" y="80"/>
      <point x="334" y="-15"/>
      <point x="410" y="-15" type="curve" smooth="yes"/>
      <point x="461" y="-15"/>
      <point x="505" y="31"/>
      <point x="531" y="54" type="curve"/>
      <point x="517" y="80" type="line"/>
      <point x="488" y="62"/>
      <point x="464" y="57"/>
      <point x="443" y="57" type="curve" smooth="yes"/>
      <point x="421" y="57"/>
      <point x="393" y="80"/>
      <point x="393" y="175" type="curve" smooth="yes"/>
      <point x="393" y="222"/>
      <point x="403" y="352"/>
    </contour>
  </outline>
</glyph>
<glyph name="threequarters" format="1">
  <advance width="789"/>
  <unicode hex="00BE"/>
  <outline>
    <contour>
      <point x="105" y="-48" type="line"/>
      <point x="166" y="-48" type="line"/>
      <point x="714" y="693" type="line"/>
      <point x="652" y="693" type="line"/>
    </contour>
    <contour>
      <point x="135" y="247" type="curve" smooth="yes"/>
      <point x="247" y="247"/>
      <point x="305" y="312"/>
      <point x="305" y="379" type="curve" smooth="yes"/>
      <point x="305" y="432"/>
      <point x="268" y="487"/>
      <point x="192" y="509" type="curve"/>
      <point x="219" y="537"/>
      <point x="262" y="577"/>
      <point x="292" y="613" type="curve"/>
      <point x="276" y="660" type="line"/>
      <point x="232" y="659"/>
      <point x="204" y="659"/>
      <point x="157" y="659" type="curve" smooth="yes"/>
      <point x="113" y="659"/>
      <point x="75" y="659"/>
      <point x="31" y="660" type="curve"/>
      <point x="32" y="646"/>
      <point x="33" y="625"/>
      <point x="33" y="602" type="curve" smooth="yes"/>
      <point x="33" y="573"/>
      <point x="32" y="550"/>
      <point x="31" y="525" type="curve"/>
      <point x="64" y="525" type="line"/>
      <point x="71" y="551"/>
      <point x="79" y="575"/>
      <point x="86" y="594" type="curve"/>
      <point x="109" y="596"/>
      <point x="126" y="596"/>
      <point x="148" y="596" type="curve" smooth="yes"/>
      <point x="167" y="596"/>
      <point x="187" y="596"/>
      <point x="213" y="595" type="curve"/>
      <point x="193" y="561"/>
      <point x="146" y="516"/>
      <point x="114" y="490" type="curve"/>
      <point x="121" y="470" type="line"/>
      <point x="191" y="459"/>
      <point x="227" y="414"/>
      <point x="227" y="371" type="curve" smooth="yes"/>
      <point x="227" y="330"/>
      <point x="193" y="291"/>
      <point x="125" y="291" type="curve" smooth="yes"/>
      <point x="94" y="291"/>
      <point x="59" y="300"/>
      <point x="27" y="316" type="curve"/>
      <point x="20" y="280" type="line"/>
      <point x="54" y="259"/>
      <point x="96" y="247"/>
    </contour>
    <contour>
      <point x="626" y="136" type="curve"/>
      <point x="594" y="136"/>
      <point x="562" y="137"/>
      <point x="531" y="139" type="curve"/>
      <point x="565" y="199"/>
      <point x="571" y="208"/>
      <point x="626" y="294" type="curve"/>
      <point x="626" y="165"/>
      <point x="627" y="167"/>
    </contour>
    <contour>
      <point x="621" y="0" type="line"/>
      <point x="703" y="0" type="line"/>
      <point x="701" y="31"/>
      <point x="700" y="62"/>
      <point x="699" y="96" type="curve"/>
      <point x="722" y="96"/>
      <point x="745" y="95"/>
      <point x="769" y="94" type="curve"/>
      <point x="769" y="139" type="line"/>
      <point x="698" y="136" type="line"/>
      <point x="697" y="212"/>
      <point x="698" y="301"/>
      <point x="699" y="416" type="curve"/>
      <point x="676" y="416" type="line"/>
      <point x="592" y="314"/>
      <point x="524" y="221"/>
      <point x="439" y="125" type="curve"/>
      <point x="439" y="94" type="line"/>
      <point x="507" y="96"/>
      <point x="567" y="97"/>
      <point x="625" y="97" type="curve"/>
    </contour>
  </outline>
</glyph>
<glyph name="Acircumflex" format="1">
  <advance width="683"/>
  <unicode hex="00C2"/>
  <outline>
    <component base="A"/>
    <component base="circumflex" xOffset="183" yOffset="230"/>
    <contour>
      <point x="615" y="10" type="move" name="ogonek"/>
    </contour>
    <contour>
      <point x="342" y="660" type="move" name="top"/>
    </contour>
  </outline>
</glyph>
<glyph name="Ccedilla" format="1">
  <advance width="618"/>
  <unicode hex="00C7"/>
  <outline>
    <component base="C"/>
    <component base="cedilla" xOffset="250"/>
    <contour>
      <point x="360" y="0" type="move" name="bottom"/>
    </contour>
    <contour>
      <point x="340" y="660" type="move" name="top"/>
    </contour>
  </outline>
</glyph>
<glyph name="Eacute" format="1">
  <advance width="564"/>
  <unicode hex="00C9"/>
  <outline>
    <component base="E"/>
    <component base="acute" xOffset="227" yOffset="229"/>
    <contour>
      <point x="279" y="0" type="move" name="bottom"/>
    </contour>
    <contour>
      <point x="501" y="10" type="move" name="ogonek"/>
    </contour>
    <contour>
      <point x="279" y="660" type="move" name="top"/>
    </contour>
  </outline>
</glyph>
<glyph name="Edieresis" format="1">
  <advance width="564"/>
  <unicode hex="00CB"/>
  <outline>
    <component base="E"/>
    <component base="dieresis" xOffset="145" yOffset="230"/>
    <contour>
      <point x="299" y="0" type="move" name="bottom"/>
    </contour>
    <contour>
      <point x="501" y="10" type="move" name="ogonek"/>
    </contour>
    <contour>
      <point x="298" y="660" type="move" name="top"/>
    </contour>
  </outline>
</glyph>
<glyph name="Ntilde" format="1">
  <advance width="728"/>
  <unicode hex="00D1"/>
  <outline>
    <contour>
      <point x="200" y="660" type="curve"/>
      <point x="169" y="638"/>
      <point x="159" y="629"/>
      <point x="149" y="555" type="curve"/>
      <point x="294" y="359"/>
      <point x="390" y="216"/>
      <point x="557" y="-11" type="curve"/>
      <point x="572" y="-11" type="line"/>
      <point x="583" y="114" type="line"/>
      <point x="461" y="269"/>
      <point x="316" y="474"/>
    </contour>
    <contour>
      <point x="200" y="660" type="line"/>
      <point x="175" y="658"/>
      <point x="162" y="657"/>
      <point x="130" y="657" type="curve" smooth="yes"/>
      <point x="89" y="657"/>
      <point x="67" y="658"/>
      <point x="26" y="660" type="curve"/>
      <point x="16" y="629" type="line"/>
      <point x="104" y="608" type="line"/>
      <point x="112" y="453"/>
      <point x="109" y="267"/>
      <point x="104" y="51" type="curve"/>
      <point x="16" y="30" type="line"/>
      <point x="26" y="0" type="line"/>
      <point x="67" y="1"/>
      <point x="97" y="4"/>
      <point x="137" y="3" type="curve" smooth="yes"/>
      <point x="181" y="2"/>
      <point x="218" y="2"/>
      <point x="254" y="0" type="curve"/>
      <point x="265" y="30" type="line"/>
      <point x="177" y="51" type="line"/>
      <point x="172" y="271"/>
      <point x="176" y="380"/>
      <point x="177" y="608" type="curve"/>
    </contour>
    <contour>
      <point x="703" y="660" type="line"/>
      <point x="667" y="658"/>
      <point x="629" y="656"/>
      <point x="586" y="656" type="curve" smooth="yes"/>
      <point x="545" y="656"/>
      <point x="514" y="659"/>
      <point x="473" y="660" type="curve"/>
      <point x="465" y="629" type="line"/>
      <point x="553" y="608" type="line"/>
      <point x="560" y="453"/>
      <point x="563" y="250"/>
      <point x="556" y="33" type="curve"/>
      <point x="568" y="-11" type="line"/>
      <point x="621" y="-11" type="line"/>
      <point x="621" y="210"/>
      <point x="621" y="380"/>
      <point x="626" y="608" type="curve"/>
      <point x="713" y="629" type="line"/>
    </contour>
    <contour>
      <point x="362" y="850"/>
      <point x="409" y="795"/>
      <point x="446" y="795" type="curve"/>
      <point x="466" y="805"/>
      <point x="478" y="818"/>
      <point x="498" y="845" type="curve"/>
      <point x="524" y="825" type="line"/>
      <point x="487" y="764"/>
      <point x="453" y="726"/>
      <point x="413" y="726" type="curve" smooth="yes"/>
      <point x="374" y="726"/>
      <point x="326" y="781"/>
      <point x="292" y="781" type="curve"/>
      <point x="271" y="770"/>
      <point x="257" y="754"/>
      <point x="239" y="731" type="curve"/>
      <point x="213" y="751" type="line"/>
      <point x="252" y="811"/>
      <point x="286" y="850"/>
      <point x="325" y="850" type="curve" smooth="yes"/>
    </contour>
    <contour>
      <point x="364" y="0" type="move" name="bottom"/>
    </contour>
    <contour>
      <point x="364" y="660" type="move" name="top"/>
    </contour>
  </outline>
</glyph>
<glyph name="multiply" format="1">
  <advance width="427"/>
  <unicode hex="00D7"/>
  <outline>
    <contour>
      <point x="358" y="499" type="line"/>
      <point x="260" y="397"/>
      <point x="127" y="264"/>
      <point x="25" y="166" type="curve"/>
      <point x="69" y="122" type="line"/>
      <point x="167" y="224"/>
      <point x="300" y="357"/>
      <point x="402" y="455" type="curve"/>
    </contour>
    <contour>
      <point x="402" y="166" type="line"/>
      <point x="300" y="264"/>
      <point x="167" y="397"/>
      <point x="69" y="499" type="curve"/>
      <point x="25" y="455" type="line"/>
      <point x="127" y="357"/>
      <point x="260" y="224"/>
      <point x="358" y="122" type="curve"/>
    </contour>
  </outline>
</glyph>
<glyph name="Oslash" format="1">
  <advance width="673"/>
  <unicode hex="00D8"/>
  <outline>
    <contour>
      <point x="88" y="4" type="line"/>
      <point x="146" y="-30" type="line"/>
      <point x="596" y="654" type="line"/>
      <point x="537" y="688" type="line"/>
    </contour>
    <component base="O"/>
    <contour>
      <point x="338" y="660" type="move" name="top"/>
    </contour>
  </outline>
</glyph>
<glyph name="Uacute" format="1">
  <advance width="721"/>
  <unicode hex="00DA"/>
  <outline>
    <component base="U"/>
    <component base="acute" xOffset="306" yOffset="229"/>
    <contour>
      <point x="559" y="9" type="move" name="ogonek"/>
    </contour>
    <contour>
      <point x="367" y="660" type="move" name="top"/>
    </contour>
  </outline>
</glyph>
<glyph name="Yacute" format="1">
  <advance width="657"/>
  <unicode hex="00DD"/>
  <outline>
    <component base="Y"/>
    <component base="acute" xOffset="279" yOffset="230"/>
    <contour>
      <point x="339" y="660" type="move" name="top"/>
    </contour>
  </outline>
</glyph>
<glyph name="acircumflex" format="1">
  <advance width="464"/>
  <unicode hex="00E2"/>
  <outline>
    <component base="a"/>
    <component base="circumflex" xOffset="66"/>
    <contour>
      <point x="356" y="9" type="move" name="ogonek"/>
    </contour>
    <contour>
      <point x="218" y="430" type="move" name="top"/>
    </contour>
  </outline>
</glyph>
<glyph name="eacute" format="1">
  <advance width="446"/>
  <unicode hex="00E9"/>
  <outline>
    <component base="e"/>
    <component base="acute" xOffset="183" yOffset="-1"/>
    <contour>
      <point x="236" y="0" type="move" name="bottom"/>
    </contour>
    <contour>
      <point x="343" y="9" type="move" name="ogonek"/>
    </contour>
    <contour>
      <point x="234" y="430" type="move" name="top"/>
    </contour>
  </outline>
</glyph>
<glyph name="iacute" format="1">
  <advance width="276"/>
  <unicode hex="00ED"/>
  <outline>
    <component base="idotless"/>
    <component base="acute" xOffset="81" yOffset="-1"/>
    <contour>
      <point x="136" y="660" type="move" name="top"/>
    </contour>
  </outline>
</glyph>
<glyph name="ntilde" format="1">
  <advance width="553"/>
  <unicode hex="00F1"/>
  <outline>
    <component base="n"/>
    <component base="tilde" xOffset="133"/>
    <contour>
      <point x="287" y="0" type="move" name="bottom"/>
    </contour>
    <contour>
      <point x="287" y="430" type="move" name="top"/>
    </contour>
  </outline>
</glyph>
<glyph name="udieresis" format="1">
  <advance width="548"/>
  <unicode hex="00FC"/>
  <outline>
    <component base="u"/>
    <component base="dieresis" xOffset="127"/>
    <contour>
      <point x="417" y="9" type="move" name="ogonek"/>
    </contour>
    <contour>
      <point x="266" y="430" type="move" name="top"/>
    </contour>
  </outline>
</glyph>
<glyph name="yacute" format="1">
  <advance width="539"/>
  <unicode hex="00FD"/>
  <outline>
    <component base="y"/>
    <component base="acute" xOffset="230" yOffset="-1"/>
    <contour>
      <point x="285" y="430" type="move" name="top"/>
    </contour>
  </outline>
</glyph>
<glyph name="Scaron" format="1">
  <advance width="542"/>
  <unicode hex="0160"/>
  <outline>
    <component base="S"/>
    <component base="caron" xOffset="121" yOffset="230"/>
    <contour>
      <point x="253" y="0" type="move" name="bottom"/>
    </contour>
    <contour>
      <point x="269" y="660" type="move" name="top"/>
    </contour>
  </outline>
</glyph>
<glyph name="Zcaron" format="1">
  <advance width="560"/>
  <unicode hex="017D"/>
  <outline>
    <component base="Z"/>
    <component base="caron" xOffset="123" yOffset="230"/>
    <contour>
      <point x="273" y="660" type="move" name="top"/>
    </contour>
  </outline>
</glyph>
<glyph name="zcaron" format="1">
  <advance width="431"/>
  <unicode hex="017E"/>
  <outline>
    <component base="z"/>
    <component base="caron" xOffset="67"/>
    <contour>
      <point x="213" y="430" type="move" name="top"/>
    </contour>
  </outline>
</glyph>
<glyph name="florin" format="1">
  <advance width="540"/>
  <unicode hex="0192"/>
  <outline>
    <contour>
      <point x="392" y="418" type="line"/>
      <point x="112" y="418" type="line"/>
      <point x="102" y="377" type="line"/>
      <point x="171" y="375"/>
      <point x="284" y="373"/>
      <point x="395" y="358" type="curve"/>
    </contour>
    <contour>
      <point x="49" y="-225" type="curve"/>
      <point x="-12" y="-222"/>
      <point x="-37" y="-175"/>
      <point x="-50" y="-122" type="curve"/>
      <point x="-79" y="-122" type="line"/>
      <point x="-103" y="-150"/>
      <point x="-122" y="-179"/>
      <point x="-122" y="-217" type="curve"/>
      <point x="-99" y="-254"/>
      <point x="-57" y="-273"/>
      <point x="-7" y="-273" type="curve"/>
      <point x="72" y="-273"/>
      <point x="178" y="-201"/>
      <point x="208" y="-63" type="curve" smooth="yes"/>
      <point x="215" y="-31"/>
      <point x="293" y="484"/>
      <point x="298" y="516" type="curve" smooth="yes"/>
      <point x="312" y="602"/>
      <point x="326" y="665"/>
      <point x="374" y="696" type="curve"/>
      <point x="435" y="693"/>
      <point x="460" y="646"/>
      <point x="473" y="593" type="curve"/>
      <point x="502" y="593" type="line"/>
      <point x="526" y="621"/>
      <point x="545" y="650"/>
      <point x="545" y="688" type="curve"/>
      <point x="522" y="725"/>
      <point x="480" y="744"/>
      <point x="430" y="744" type="curve" smooth="yes"/>
      <point x="341" y="744"/>
      <point x="241" y="667"/>
      <point x="211" y="502" type="curve" smooth="yes"/>
      <point x="205" y="470"/>
      <point x="133" y="-15"/>
      <point x="126" y="-47" type="curve" smooth="yes"/>
      <point x="107" y="-132"/>
      <point x="87" y="-200"/>
    </contour>
  </outline>
</glyph>
<glyph name="ring" format="1">
  <advance width="164"/>
  <unicode hex="02DA"/>
  <outline>
    <contour>
      <point x="83" y="533" type="curve" smooth="yes"/>
      <point x="52" y="533"/>
      <point x="28" y="557"/>
      <point x="28" y="588" type="curve" smooth="yes"/>
      <point x="28" y="618"/>
      <point x="52" y="642"/>
      <point x="83" y="642" type="curve" smooth="yes"/>
      <point x="113" y="642"/>
      <point x="137" y="618"/>
      <point x="137" y="588" type="curve" smooth="yes"/>
      <point x="137" y="557"/>
      <point x="113" y="533"/>
    </contour>
    <contour>
      <point x="83" y="483" type="curve" smooth="yes"/>
      <point x="140" y="483"/>
      <point x="187" y="530"/>
      <point x="187" y="588" type="curve" smooth="yes"/>
      <point x="187" y="645"/>
      <point x="140" y="692"/>
      <point x="83" y="692" type="curve" smooth="yes"/>
      <point x="25" y="692"/>
      <point x="-22" y="645"/>
      <point x="-22" y="588" type="curve" smooth="yes"/>
      <point x="-22" y="530"/>
      <point x="25" y="483"/>
    </contour>
    <contour>
      <point x="82" y="430" type="move" name="_top"/>
    </contour>
  </outline>
</glyph>
<glyph name="alefMadda-ar" format="1">
  <advance width="269"/>
  <unicode hex="0622"/>
  <outline>
    <component base="alef-ar.short" xOffset="64"/>
    <component base="madda-ar" xOffset="-13" yOffset="14"/>
    <contour>
      <point x="163" y="-56" type="move" name="bottom"/>
    </contour>
    <contour>
      <point x="157" y="731" type="move" name="top"/>
    </contour>
  </outline>
</glyph>
<glyph name="alefHamzabelow-ar" format="1">
  <advance width="225"/>
  <unicode hex="0625"/>
  <outline>
    <contour>
      <point x="89" y="-1" type="line"/>
      <point x="114" y="-1"/>
      <point x="131" y="-2"/>
      <point x="236" y="1" type="curve"/>
      <point x="236" y="10"/>
      <point x="235" y="34"/>
      <point x="231" y="34" type="curve" smooth="yes"/>
      <point x="139" y="34" type="line" smooth="yes"/>
      <point x="132" y="34"/>
      <point x="136" y="56"/>
      <point x="142" y="56" type="curve" smooth="yes"/>
      <point x="236" y="56" type="line"/>
      <point x="236" y="66"/>
      <point x="235" y="89"/>
      <point x="231" y="89" type="curve" smooth="yes"/>
      <point x="138" y="89" type="line" smooth="yes"/>
      <point x="133" y="89"/>
      <point x="136" y="112"/>
      <point x="142" y="112" type="curve" smooth="yes"/>
      <point x="236" y="112" type="line"/>
      <point x="236" y="121"/>
      <point x="235" y="145"/>
      <point x="231" y="145" type="curve" smooth="yes"/>
      <point x="142" y="145" type="line" smooth="yes"/>
      <point x="136" y="145"/>
      <point x="135" y="146"/>
      <point x="135" y="181" type="curve"/>
      <point x="126" y="181"/>
      <point x="126" y="145"/>
      <point x="116" y="145" type="curve"/>
    </contour>
    <contour>
      <point x="137" y="567" type="curve"/>
      <point x="132" y="574"/>
      <point x="128" y="578"/>
      <point x="125" y="578" type="curve" smooth="yes"/>
      <point x="109" y="578"/>
      <point x="84" y="572"/>
      <point x="55" y="554" type="curve"/>
      <point x="90" y="248"/>
      <point x="78" y="-1"/>
      <point x="89" y="-1" type="curve"/>
      <point x="106" y="3"/>
      <point x="108" y="1"/>
      <point x="134" y="2" type="curve"/>
      <point x="134" y="14"/>
      <point x="135" y="87"/>
      <point x="135" y="161" type="curve" smooth="yes"/>
      <point x="134" y="253"/>
      <point x="138" y="463"/>
    </contour>
    <contour>
      <point x="99" y="-56" type="move" name="bottom"/>
    </contour>
    <contour>
      <point x="94" y="600" type="move" name="top"/>
    </contour>
  </outline>
</glyph>
<glyph name="yehHamzaabove-ar" format="1">
  <advance width="766"/>
  <unicode hex="0626"/>
  <outline>
    <component base="alefMaksura-ar"/>
    <component base="hamzaabove-ar" xOffset="398" yOffset="-254"/>
    <contour>
      <point x="596" y="-164" type="move" name="bottom"/>
    </contour>
    <contour>
      <point x="472" y="456" type="move" name="top"/>
    </contour>
  </outline>
</glyph>
<glyph name="tehMarbuta-ar" format="1">
  <advance width="474"/>
  <unicode hex="0629"/>
  <outline>
    <component base="heh-ar"/>
    <component base="twodotshorizontalabove-ar" xOffset="106" yOffset="133"/>
    <contour>
      <point x="273" y="-30" type="move" name="bottom"/>
    </contour>
    <contour>
      <point x="271" y="598" type="move" name="top"/>
    </contour>
  </outline>
</glyph>
<glyph name="teh-ar" format="1">
  <advance width="542"/>
  <unicode hex="062A"/>
  <outline>
    <component base="behDotless-ar"/>
    <component base="twodotshorizontalabove-ar" xOffset="118" yOffset="5"/>
    <contour>
      <point x="271" y="-30" type="move" name="bottom"/>
    </contour>
    <contour>
      <point x="273" y="470" type="move" name="top"/>
    </contour>
  </outline>
</glyph>
<glyph name="theh-ar" format="1">
  <advance width="542"/>
  <unicode hex="062B"/>
  <outline>
    <component base="behDotless-ar"/>
    <component base="threedotsupabove-ar" xOffset="108" yOffset="5"/>
    <contour>
      <point x="265" y="-40" type="move" name="bottom"/>
    </contour>
    <contour>
      <point x="261" y="646" type="move" name="top"/>
    </contour>
  </outline>
</glyph>
<glyph name="jeem-ar" format="1">
  <advance width="586"/>
  <unicode hex="062C"/>
  <outline>
    <component base="hah-ar"/>
    <component base="dotcenter-ar" xOffset="217" yOffset="-537"/>
    <contour>
      <point x="328" y="-231" type="move" name="bottom"/>
    </contour>
    <contour>
      <point x="273" y="347" type="move" name="top"/>
    </contour>
  </outline>
</glyph>
<glyph name="hah-ar" format="1">
  <advance width="586"/>
  <unicode hex="062D"/>
  <outline>
    <contour>
      <point x="429" y="128" type="curve" smooth="yes"/>
      <point x="430" y="116"/>
      <point x="428" y="114"/>
      <point x="374" y="114" type="curve" smooth="yes"/>
      <point x="258" y="114"/>
      <point x="37" y="79"/>
      <point x="37" y="-161" type="curve" smooth="yes"/>
      <point x="37" y="-278"/>
      <point x="101" y="-391"/>
      <point x="251" y="-481" type="curve"/>
      <point x="252" y="-480"/>
      <point x="252" y="-480"/>
      <point x="253" y="-480" type="curve" smooth="yes"/>
      <point x="257" y="-478"/>
      <point x="262" y="-474"/>
      <point x="262" y="-467" type="curve" smooth="yes"/>
      <point x="262" y="-463" type="line"/>
      <point x="160" y="-379"/>
      <point x="114" y="-279"/>
      <point x="114" y="-191" type="curve" smooth="yes"/>
      <point x="114" y="-70"/>
      <point x="201" y="27"/>
      <point x="348" y="27" type="curve" smooth="yes"/>
      <point x="412" y="27"/>
      <point x="456" y="19"/>
      <point x="513" y="-1" type="curve"/>
      <point x="518" y="19"/>
      <point x="519" y="35"/>
      <point x="519" y="52" type="curve" smooth="yes"/>
      <point x="519" y="62"/>
      <point x="519" y="71"/>
      <point x="518" y="81" type="curve" smooth="yes"/>
      <point x="517" y="89"/>
      <point x="496" y="95"/>
      <point x="493" y="107" type="curve" smooth="yes"/>
      <point x="454" y="277"/>
      <point x="446" y="328"/>
      <point x="417" y="328" type="curve" smooth="yes"/>
      <point x="333" y="328"/>
      <point x="220" y="289"/>
      <point x="134" y="289" type="curve" smooth="yes"/>
      <point x="115" y="289"/>
      <point x="96" y="290"/>
      <point x="78" y="293" type="curve"/>
      <point x="77" y="288"/>
      <point x="76" y="282"/>
      <point x="76" y="277" type="curve" smooth="yes"/>
      <point x="76" y="237"/>
      <point x="101" y="194"/>
      <point x="147" y="194" type="curve" smooth="yes"/>
      <point x="205" y="194"/>
      <point x="305" y="237"/>
      <point x="390" y="237" type="curve" smooth="yes"/>
      <point x="411" y="237"/>
      <point x="426" y="165"/>
    </contour>
    <contour>
      <point x="316" y="-89" type="move" name="bottom"/>
    </contour>
    <contour>
      <point x="250" y="343" type="move" name="top"/>
    </contour>
  </outline>
</glyph>
<glyph name="khah-ar" format="1">
  <advance width="586"/>
  <unicode hex="062E"/>
  <outline>
    <component base="hah-ar"/>
    <component base="dotabove-ar" xOffset="141" yOffset="24"/>
    <contour>
      <point x="320" y="-85" type="move" name="bottom"/>
    </contour>
    <contour>
      <point x="247" y="533" type="move" name="top"/>
    </contour>
  </outline>
</glyph>
<glyph name="thal-ar" format="1">
  <advance width="431"/>
  <unicode hex="0630"/>
  <outline>
    <component base="dal-ar"/>
    <component base="dotabove-ar" xOffset="160" yOffset="-19"/>
    <contour>
      <point x="306" y="-60" type="move" name="bottom"/>
    </contour>
    <contour>
      <point x="259" y="484" type="move" name="top"/>
    </contour>
  </outline>
</glyph>
<glyph name="ain-ar" format="1">
  <advance width="590"/>
  <unicode hex="0639"/>
  <outline>
    <contour>
      <point x="284" y="109" type="curve" smooth="yes"/>
      <point x="184" y="87"/>
      <point x="37" y="16"/>
      <point x="37" y="-161" type="curve" smooth="yes"/>
      <point x="37" y="-278"/>
      <point x="101" y="-391"/>
      <point x="251" y="-481" type="curve"/>
      <point x="252" y="-480"/>
      <point x="252" y="-480"/>
      <point x="253" y="-480" type="curve" smooth="yes"/>
      <point x="257" y="-478"/>
      <point x="262" y="-474"/>
      <point x="262" y="-467" type="curve" smooth="yes"/>
      <point x="262" y="-463" type="line"/>
      <point x="160" y="-379"/>
      <point x="114" y="-279"/>
      <point x="114" y="-191" type="curve" smooth="yes"/>
      <point x="114" y="-70"/>
      <point x="201" y="27"/>
      <point x="348" y="27" type="curve" smooth="yes"/>
      <point x="412" y="27"/>
      <point x="456" y="19"/>
      <point x="513" y="-1" type="curve"/>
      <point x="518" y="19"/>
      <point x="519" y="35"/>
      <point x="519" y="52" type="curve" smooth="yes"/>
      <point x="519" y="62"/>
      <point x="516" y="82"/>
      <point x="508" y="88" type="curve" smooth="yes"/>
      <point x="497" y="96"/>
      <point x="466" y="105"/>
      <point x="391" y="116" type="curve" smooth="yes"/>
      <point x="364" y="120"/>
      <point x="330" y="169"/>
      <point x="330" y="218" type="curve" smooth="yes"/>
      <point x="330" y="250"/>
      <point x="351" y="279"/>
      <point x="415" y="279" type="curve" smooth="yes"/>
      <point x="458" y="279"/>
      <point x="501" y="267"/>
      <point x="547" y="246" type="curve"/>
      <point x="549" y="254"/>
      <point x="550" y="263"/>
      <point x="550" y="271" type="curve" smooth="yes"/>
      <point x="550" y="308"/>
      <point x="532" y="347"/>
      <point x="515" y="353" type="curve" smooth="yes"/>
      <point x="482" y="364"/>
      <point x="449" y="368"/>
      <point x="408" y="368" type="curve" smooth="yes"/>
      <point x="323" y="368"/>
      <point x="252" y="344"/>
      <point x="252" y="250" type="curve" smooth="yes"/>
      <point x="252" y="175"/>
      <point x="301" y="133"/>
      <point x="301" y="123" type="curve" smooth="yes"/>
      <point x="301" y="117"/>
      <point x="297" y="112"/>
    </contour>
    <contour>
      <point x="344" y="-111" type="move" name="bottom"/>
    </contour>
    <contour>
      <point x="417" y="397" type="move" name="top"/>
    </contour>
  </outline>
</glyph>
<glyph name="kashida-ar" format="1">
  <advance width="79"/>
  <unicode hex="0640"/>
  <outline>
    <contour>
      <point x="-20" y="0" type="line"/>
      <point x="99" y="0" type="line"/>
      <point x="99" y="90" type="line"/>
      <point x="-20" y="90" type="line"/>
    </contour>
    <contour>
      <point x="40" y="-30" type="move" name="bottom"/>
    </contour>
    <contour>
      <point x="40" y="180" type="move" name="top"/>
    </contour>
  </outline>
</glyph>
<glyph name="lam-ar" format="1">
  <advance width="533"/>
  <unicode hex="0644"/>
  <outline>
    <contour>
      <point x="465" y="-32" type="curve" smooth="yes"/>
      <point x="474" y="-21"/>
      <point x="477" y="62"/>
      <point x="477" y="139" type="curve" smooth="yes"/>
      <point x="477" y="251"/>
      <point x="471" y="386"/>
      <point x="466" y="582" type="curve"/>
      <point x="461" y="589"/>
      <point x="457" y="593"/>
      <point x="454" y="593" type="curve" smooth="yes"/>
      <point x="438" y="593"/>
      <point x="398" y="574"/>
      <point x="369" y="556" type="curve"/>
      <point x="397" y="389"/>
      <point x="420" y="175"/>
      <point x="423" y="47" type="curve"/>
      <point x="351" y="-45"/>
      <point x="241" y="-145"/>
      <point x="134" y="-145" type="curve" smooth="yes"/>
      <point x="77" y="-145"/>
      <point x="22" y="-116"/>
      <point x="-26" y="-42" type="curve"/>
      <point x="-34" y="-38"/>
      <point x="-43" y="-44"/>
      <point x="-47" y="-52" type="curve"/>
      <point x="-7" y="-185"/>
      <point x="62" y="-245"/>
      <point x="146" y="-245" type="curve" smooth="yes"/>
      <point x="241" y="-245"/>
      <point x="354" y="-168"/>
    </contour>
    <contour>
      <point x="456" y="-167" type="move" name="bottom"/>
    </contour>
    <contour>
      <point x="411" y="633" type="move" name="top"/>
    </contour>
  </outline>
</glyph>
<glyph name="meem-ar" format="1">
  <advance width="475"/>
  <unicode hex="0645"/>
  <outline>
    <contour>
      <point x="360" y="152" type="curve" smooth="yes"/>
      <point x="360" y="96"/>
      <point x="346" y="90"/>
      <point x="310" y="90" type="curve" smooth="yes"/>
      <point x="213" y="90"/>
      <point x="154" y="90"/>
      <point x="154" y="98" type="curve" smooth="yes"/>
      <point x="154" y="125"/>
      <point x="314" y="292"/>
      <point x="336" y="292" type="curve" smooth="yes"/>
      <point x="348" y="292"/>
      <point x="360" y="194"/>
    </contour>
    <contour>
      <point x="325" y="0"/>
      <point x="354" y="0" type="curve" smooth="yes"/>
      <point x="402" y="0"/>
      <point x="415" y="65"/>
      <point x="415" y="163" type="curve" smooth="yes"/>
      <point x="415" y="225"/>
      <point x="409" y="300"/>
      <point x="396" y="380" type="curve" smooth="yes"/>
      <point x="394" y="390"/>
      <point x="370" y="409"/>
      <point x="356" y="409" type="curve" smooth="yes"/>
      <point x="323" y="409"/>
      <point x="64" y="159"/>
      <point x="62" y="125" type="curve" smooth="yes"/>
      <point x="61" y="101"/>
      <point x="60" y="73"/>
      <point x="60" y="43" type="curve" smooth="yes"/>
      <point x="60" y="-88"/>
      <point x="72" y="-260"/>
      <point x="76" y="-390" type="curve"/>
      <point x="90" y="-390"/>
      <point x="113" y="-386"/>
      <point x="113" y="-374" type="curve"/>
      <point x="119" y="-222"/>
      <point x="127" y="-124"/>
      <point x="134" y="-63" type="curve" smooth="yes"/>
      <point x="140" y="-10"/>
      <point x="142" y="0"/>
      <point x="173" y="0" type="curve" smooth="yes"/>
      <point x="227" y="0"/>
    </contour>
    <contour>
      <point x="261" y="-30" type="move" name="bottom"/>
    </contour>
    <contour>
      <point x="269" y="440" type="move" name="top"/>
    </contour>
  </outline>
</glyph>
<glyph name="yeh-ar" format="1">
  <advance width="766"/>
  <unicode hex="064A"/>
  <outline>
    <component base="alefMaksura-ar"/>
    <component base="twodotshorizontalbelow-ar" xOffset="-2" yOffset="-323"/>
    <contour>
      <point x="140" y="-549" type="move" name="bottom"/>
    </contour>
    <contour>
      <point x="494" y="278" type="move" name="top"/>
    </contour>
  </outline>
</glyph>
<glyph name="fathatan-ar" format="1">
  <advance width="297"/>
  <unicode hex="064B"/>
  <outline>
    <component base="fatha-ar" xOffset="40"/>
    <component base="fatha-ar" xOffset="-1" yOffset="69"/>
    <contour>
      <point x="170" y="555" type="move" name="_top"/>
    </contour>
    <contour>
      <point x="149" y="688" type="move" name="top"/>
    </contour>
  </outline>
</glyph>
<glyph name="fatha-ar" format="1">
  <advance width="257"/>
  <unicode hex="064E"/>
  <outline>
    <contour>
      <point x="32" y="596" type="line"/>
      <point x="32" y="584"/>
      <point x="34" y="561"/>
      <point x="43" y="561" type="curve" smooth="yes"/>
      <point x="218" y="561" type="line"/>
      <point x="218" y="573"/>
      <point x="215" y="596"/>
      <point x="206" y="596" type="curve" smooth="yes"/>
    </contour>
    <contour>
      <point x="126" y="533" type="move" name="_top"/>
    </contour>
    <contour>
      <point x="125" y="604" type="move" name="top"/>
    </contour>
    <contour>
      <point x="-20" y="550" type="move" name="top_alef"/>
    </contour>
  </outline>
</glyph>
<glyph name="damma-ar" format="1">
  <advance width="244"/>
  <unicode hex="064F"/>
  <outline>
    <contour>
      <point x="176" y="685" type="curve" smooth="yes"/>
      <point x="183" y="660"/>
      <point x="190" y="591"/>
      <point x="178" y="591" type="curve" smooth="yes"/>
      <point x="36" y="591" type="line"/>
      <point x="36" y="576"/>
      <point x="39" y="556"/>
      <point x="49" y="556" type="curve" smooth="yes"/>
      <point x="169" y="556" type="line" smooth="yes"/>
      <point x="186" y="556"/>
      <point x="195" y="556"/>
      <point x="208" y="556" type="curve"/>
      <point x="218" y="599"/>
      <point x="220" y="643"/>
      <point x="211" y="695" type="curve" smooth="yes"/>
      <point x="210" y="700"/>
      <point x="174" y="692"/>
    </contour>
    <contour>
      <point x="131" y="526" type="move" name="_top"/>
    </contour>
    <contour>
      <point x="124" y="726" type="move" name="top"/>
    </contour>
  </outline>
</glyph>
<glyph name="alefbelow-ar" format="1">
  <advance width="95"/>
  <unicode hex="0656"/>
  <outline>
    <component base="alefabove-ar" yOffset="-870"/>
    <contour>
      <point x="47" y="-59" type="move" name="_bottom"/>
    </contour>
    <contour>
      <point x="49" y="-335" type="move" name="bottom"/>
    </contour>
  </outline>
</glyph>
<glyph name="vabove-ar" format="1">
  <advance width="231"/>
  <unicode hex="065A"/>
  <outline>
    <contour>
      <point x="15" y="623" type="curve"/>
      <point x="53" y="583"/>
      <point x="83" y="542"/>
      <point x="105" y="509" type="curve"/>
      <point x="114" y="508"/>
      <point x="118" y="508"/>
      <point x="128" y="509" type="curve"/>
      <point x="216" y="623" type="line"/>
      <point x="216" y="629"/>
      <point x="199" y="640"/>
      <point x="187" y="646" type="curve"/>
      <point x="117" y="551" type="line"/>
      <point x="46" y="646" type="line"/>
      <point x="38" y="646"/>
      <point x="15" y="632"/>
    </contour>
    <contour>
      <point x="115" y="484" type="move" name="_top"/>
    </contour>
    <contour>
      <point x="115" y="660" type="move" name="top"/>
    </contour>
  </outline>
</glyph>
<glyph name="nine-ar" format="1">
  <advance width="412"/>
  <unicode hex="0669"/>
  <outline>
    <contour>
      <point x="279" y="532" type="line"/>
      <point x="279" y="408"/>
      <point x="209" y="338"/>
      <point x="157" y="338" type="curve" smooth="yes"/>
      <point x="125" y="338"/>
      <point x="100" y="363"/>
      <point x="100" y="417" type="curve" smooth="yes"/>
      <point x="100" y="466"/>
      <point x="138" y="552"/>
      <point x="207" y="574" type="curve"/>
      <point x="278" y="524"/>
      <point x="301" y="414"/>
      <point x="301" y="274" type="curve" smooth="yes"/>
      <point x="301" y="190"/>
      <point x="292" y="94"/>
      <point x="281" y="-6" type="curve"/>
      <point x="296" y="-2"/>
      <point x="313" y="3"/>
      <point x="323" y="20" type="curve"/>
      <point x="352" y="140"/>
      <point x="377" y="269"/>
      <point x="377" y="383" type="curve" smooth="yes"/>
      <point x="377" y="498"/>
      <point x="352" y="599"/>
      <point x="281" y="660" type="curve"/>
      <point x="126" y="648"/>
      <point x="35" y="483"/>
      <point x="35" y="358" type="curve" smooth="yes"/>
      <point x="35" y="281"/>
      <point x="70" y="220"/>
      <point x="144" y="220" type="curve" smooth="yes"/>
      <point x="196" y="220"/>
      <point x="302" y="287"/>
      <point x="310" y="505" type="curve"/>
    </contour>
  </outline>
</glyph>
<glyph name="alefabove-ar" format="1">
  <advance width="95"/>
  <unicode hex="0670"/>
  <outline>
    <contour>
      <point x="61" y="547" type="curve" smooth="yes"/>
      <point x="64" y="609"/>
      <point x="69" y="686"/>
      <point x="74" y="761" type="curve"/>
      <point x="56" y="761"/>
      <point x="37" y="758"/>
      <point x="27" y="754" type="curve" smooth="yes"/>
      <point x="22" y="753"/>
      <point x="21" y="752"/>
      <point x="21" y="749" type="curve" smooth="yes"/>
      <point x="21" y="748"/>
      <point x="21" y="748"/>
      <point x="21" y="748" type="curve" smooth="yes"/>
      <point x="29" y="680"/>
      <point x="32" y="627"/>
      <point x="35" y="537" type="curve"/>
      <point x="45" y="537"/>
      <point x="60" y="539"/>
    </contour>
    <contour>
      <point x="47" y="529" type="move" name="_top"/>
    </contour>
    <contour>
      <point x="49" y="771" type="move" name="top"/>
    </contour>
  </outline>
</glyph>
<glyph name="peh-ar" format="1">
  <advance width="542"/>
  <unicode hex="067E"/>
  <outline>
    <component base="behDotless-ar"/>
    <component base="threedotsdownbelow-ar" xOffset="120" yOffset="-20"/>
    <contour>
      <point x="284" y="-367" type="move" name="bottom"/>
    </contour>
    <contour>
      <point x="292" y="297" type="move" name="top"/>
    </contour>
  </outline>
</glyph>
<glyph name="jeh-ar" format="1">
  <advance width="333"/>
  <unicode hex="0698"/>
  <outline>
    <component base="reh-ar"/>
    <component base="threedotsupabove-ar" xOffset="-20" yOffset="25"/>
    <contour>
      <point x="166" y="-181" type="move" name="bottom"/>
    </contour>
    <contour>
      <point x="158" y="632" type="move" name="top"/>
    </contour>
  </outline>
</glyph>
<glyph name="tahThreedots-ar" format="1">
  <advance width="769"/>
  <unicode hex="069F"/>
  <outline>
    <component base="tah-ar"/>
    <component base="threedotsupabove-ar" xOffset="256" yOffset="110"/>
    <contour>
      <point x="428" y="-30" type="move" name="bottom"/>
    </contour>
    <contour>
      <point x="408" y="745" type="move" name="top"/>
    </contour>
  </outline>
</glyph>
<glyph name="fehDotmovedbelow-ar" format="1">
  <advance width="491"/>
  <unicode hex="06A2"/>
  <outline>
    <component base="fehDotless-ar"/>
    <component base="dotbelow-ar" xOffset="169" yOffset="-30"/>
    <contour>
      <point x="278" y="-240" type="move" name="bottom"/>
    </contour>
    <contour>
      <point x="144" y="500" type="move" name="top"/>
    </contour>
  </outline>
</glyph>
<glyph name="qafDotabove-ar" format="1">
  <advance width="491"/>
  <unicode hex="06A7"/>
  <outline>
    <component base="fehDotless-ar"/>
    <component base="dotabove-ar" xOffset="35" yOffset="181"/>
    <contour>
      <point x="268" y="-30" type="move" name="bottom"/>
    </contour>
    <contour>
      <point x="151" y="693" type="move" name="top"/>
    </contour>
  </outline>
</glyph>
<glyph name="qafThreedotsabove-ar" format="1">
  <advance width="491"/>
  <unicode hex="06A8"/>
  <outline>
    <component base="fehDotless-ar"/>
    <component base="threedotsupabove-ar" xOffset="-21" yOffset="205"/>
    <contour>
      <point x="268" y="-30" type="move" name="bottom"/>
    </contour>
    <contour>
      <point x="136" y="830" type="move" name="top"/>
    </contour>
  </outline>
</glyph>
<glyph name="oe-ar" format="1">
  <advance width="515"/>
  <unicode hex="06C6"/>
  <outline>
    <component base="waw-ar"/>
    <component base="vabove-ar" xOffset="56" yOffset="-114"/>
    <contour>
      <point x="336" y="-211" type="move" name="bottom"/>
    </contour>
    <contour>
      <point x="171" y="540" type="move" name="top"/>
    </contour>
  </outline>
</glyph>
<glyph name="yeh-farsi" format="1">
  <advance width="766"/>
  <unicode hex="06CC"/>
  <outline>
    <component base="alefMaksura-ar"/>
    <contour>
      <point x="596" y="-164" type="move" name="bottom"/>
    </contour>
    <contour>
      <point x="475" y="261" type="move" name="top"/>
    </contour>
  </outline>
</glyph>
<glyph name="behThreedotsupbelow-ar" format="1">
  <advance width="542"/>
  <unicode hex="0752"/>
  <outline>
    <component base="behDotless-ar"/>
    <component base="threedotsupbelow-ar" xOffset="108" yOffset="-20"/>
    <contour>
      <point x="267" y="-355" type="move" name="bottom"/>
    </contour>
    <contour>
      <point x="271" y="283" type="move" name="top"/>
    </contour>
  </outline>
</glyph>
<glyph name="fehTwodotsbelow-ar" format="1">
  <advance width="491"/>
  <unicode hex="0760"/>
  <outline>
    <component base="fehDotless-ar"/>
    <component base="twodotshorizontalbelow-ar" xOffset="97" yOffset="-29"/>
    <contour>
      <point x="278" y="-210" type="move" name="bottom"/>
    </contour>
    <contour>
      <point x="144" y="500" type="move" name="top"/>
    </contour>
  </outline>
</glyph>
<glyph name="enquad" format="1">
  <advance width="553"/>
  <unicode hex="2000"/>
  <outline>
    <contour>
      <point x="271" y="-60" type="move" name="bottom"/>
    </contour>
    <contour>
      <point x="268" y="305" type="move" name="top"/>
    </contour>
  </outline>
</glyph>
<glyph name="emspace" format="1">
  <advance width="925"/>
  <unicode hex="2003"/>
  <outline>
    <contour>
      <point x="451" y="-60" type="move" name="bottom"/>
    </contour>
    <contour>
      <point x="448" y="305" type="move" name="top"/>
    </contour>
  </outline>
</glyph>
<glyph name="fourperemspace" format="1">
  <advance width="200"/>
  <unicode hex="2005"/>
  <outline>
    <contour>
      <point x="101" y="-60" type="move" name="bottom"/>
    </contour>
    <contour>
      <point x="98" y="305" type="move" name="top"/>
    </contour>
  </outline>
</glyph>
<glyph name="sixperemspace" format="1">
  <advance width="300"/>
  <unicode hex="2006"/>
  <outline>
    <contour>
      <point x="150" y="-60" type="move" name="bottom"/>
    </contour>
    <contour>
      <point x="147" y="305" type="move" name="top"/>
    </contour>
  </outline>
</glyph>
<glyph name="punctuationspace" format="1">
  <advance width="255"/>
  <unicode hex="2008"/>
  <outline>
    <contour>
      <point x="124" y="-60" type="move" name="bottom"/>
    </contour>
    <contour>
      <point x="124" y="305" type="move" name="top"/>
    </contour>
  </outline>
</glyph>
<glyph name="hairspace" format="1">
  <advance width="25"/>
  <unicode hex="200A"/>
  <outline>
    <contour>
      <point x="12" y="-60" type="move" name="bottom"/>
    </contour>
    <contour>
      <point x="12" y="305" type="move" name="top"/>
    </contour>
  </outline>
</glyph>
<glyph name="bullet" format="1">
  <advance width="320"/>
  <unicode hex="2022"/>
  <outline>
    <contour>
      <point x="160" y="351" type="curve" smooth="yes"/>
      <point x="133" y="351"/>
      <point x="107" y="346"/>
      <point x="79" y="338" type="curve"/>
      <point x="72" y="311"/>
      <point x="68" y="284"/>
      <point x="68" y="259" type="curve" smooth="yes"/>
      <point x="68" y="233"/>
      <point x="72" y="206"/>
      <point x="79" y="180" type="curve"/>
      <point x="107" y="171"/>
      <point x="133" y="166"/>
      <point x="160" y="166" type="curve" smooth="yes"/>
      <point x="185" y="166"/>
      <point x="211" y="171"/>
      <point x="238" y="180" type="curve"/>
      <point x="245" y="206"/>
      <point x="252" y="233"/>
      <point x="252" y="259" type="curve" smooth="yes"/>
      <point x="252" y="284"/>
      <point x="245" y="311"/>
      <point x="238" y="338" type="curve"/>
      <point x="211" y="346"/>
      <point x="185" y="351"/>
    </contour>
  </outline>
</glyph>
<glyph name="guilsinglleft" format="1">
  <advance width="317"/>
  <unicode hex="2039"/>
  <outline>
    <contour>
      <point x="255" y="437" type="line"/>
      <point x="177" y="362"/>
      <point x="110" y="297"/>
      <point x="53" y="230" type="curve"/>
      <point x="53" y="192" type="line"/>
      <point x="112" y="125"/>
      <point x="179" y="61"/>
      <point x="255" y="-15" type="curve"/>
      <point x="284" y="10" type="line"/>
      <point x="233" y="77"/>
      <point x="188" y="142"/>
      <point x="155" y="211" type="curve"/>
      <point x="187" y="280"/>
      <point x="232" y="345"/>
      <point x="284" y="413" type="curve"/>
    </contour>
  </outline>
</glyph>
<glyph name="beeh-ar.fina" format="1">
  <advance width="425"/>
  <unicode hex="FB53"/>
  <outline>
    <component base="behDotless-ar.fina"/>
    <component base="twodotsverticalbelow-ar" xOffset="162" yOffset="-30"/>
    <contour>
      <point x="239" y="-376" type="move" name="bottom"/>
    </contour>
    <contour>
      <point x="255" y="310" type="move" name="top"/>
    </contour>
  </outline>
</glyph>
<glyph name="beeh-ar.init" format="1">
  <advance width="277"/>
  <unicode hex="FB54"/>
  <outline>
    <component base="behDotless-ar.init"/>
    <component base="twodotsverticalbelow-ar" xOffset="-7" yOffset="-30"/>
    <contour>
      <point x="72" y="-376" type="move" name="bottom"/>
    </contour>
    <contour>
      <point x="95" y="310" type="move" name="top"/>
    </contour>
  </outline>
</glyph>
<glyph name="beeh-ar.medi" format="1">
  <advance width="289"/>
  <unicode hex="FB55"/>
  <outline>
    <component base="behDotless-ar.medi"/>
    <component base="twodotsverticalbelow-ar" xOffset="34" yOffset="-30"/>
    <contour>
      <point x="112" y="-376" type="move" name="bottom"/>
    </contour>
    <contour>
      <point x="105" y="310" type="move" name="top"/>
    </contour>
  </outline>
</glyph>
<glyph name="peh-ar.medi" format="1">
  <advance width="289"/>
  <unicode hex="FB59"/>
  <outline>
    <component base="behDotless-ar.medi"/>
    <component base="threedotsdownbelow-ar" xOffset="-41" yOffset="-20"/>
    <contour>
      <point x="124" y="-367" type="move" name="bottom"/>
    </contour>
    <contour>
      <point x="125" y="300" type="move" name="top"/>
    </contour>
  </outline>
</glyph>
<glyph name="veh-ar.init" format="1">
  <advance width="453"/>
  <unicode hex="FB6C"/>
  <outline>
    <component base="fehDotless-ar.init"/>
    <component base="threedotsupabove-ar" xOffset="-51" yOffset="205"/>
    <contour>
      <point x="228" y="-30" type="move" name="bottom"/>
    </contour>
    <contour>
      <point x="98" y="830" type="move" name="top"/>
    </contour>
  </outline>
</glyph>
<glyph name="nyeh-ar.fina" format="1">
  <advance width="537"/>
  <unicode hex="FB77"/>
  <outline>
    <component base="hah-ar.fina"/>
    <component base="twodotshorizontalbelow-ar" xOffset="146" yOffset="-271"/>
    <contour>
      <point x="334" y="-440" type="move" name="bottom"/>
    </contour>
    <contour>
      <point x="334" y="124" type="move" name="top"/>
    </contour>
  </outline>
</glyph>
<glyph name="nyeh-ar.init" format="1">
  <advance width="593"/>
  <unicode hex="FB78"/>
  <outline>
    <component base="hah-ar.init"/>
    <component base="twodotshorizontalbelow-ar" xOffset="100" yOffset="-29"/>
    <contour>
      <point x="281" y="-214" type="move" name="bottom"/>
    </contour>
    <contour>
      <point x="272" y="358" type="move" name="top"/>
    </contour>
  </outline>
</glyph>
<glyph name="ng-ar.fina" format="1">
  <advance width="785"/>
  <unicode hex="FBD4"/>
  <outline>
    <component base="kaf-ar.fina"/>
    <component base="threedotsupabove-ar" xOffset="40" yOffset="172"/>
    <contour>
      <point x="375" y="-40" type="move" name="bottom"/>
    </contour>
    <contour>
      <point x="199" y="809" type="move" name="top"/>
    </contour>
  </outline>
</glyph>
<glyph name="ng-ar.init" format="1">
  <advance width="757"/>
  <unicode hex="FBD5"/>
  <outline>
    <component base="keheh-ar.init"/>
    <component base="threedotsupabove-ar" xOffset="40" yOffset="172"/>
    <contour>
      <point x="375" y="-40" type="move" name="bottom"/>
    </contour>
    <contour>
      <point x="199" y="809" type="move" name="top"/>
    </contour>
  </outline>
</glyph>
<glyph name="ng-ar.medi" format="1">
  <advance width="785"/>
  <unicode hex="FBD6"/>
  <outline>
    <component base="keheh-ar.medi"/>
    <component base="threedotsupabove-ar" xOffset="40" yOffset="172"/>
    <contour>
      <point x="375" y="-40" type="move" name="bottom"/>
    </contour>
    <contour>
      <point x="199" y="809" type="move" name="top"/>
    </contour>
  </outline>
</glyph>
<glyph name="oe-ar.fina" format="1">
  <advance width="506"/>
  <unicode hex="FBDA"/>
  <outline>
    <component base="waw-ar.fina"/>
    <component base="vabove-ar" xOffset="56" yOffset="-114"/>
    <contour>
      <point x="326" y="-211" type="move" name="bottom"/>
    </contour>
    <contour>
      <point x="171" y="540" type="move" name="top"/>
    </contour>
  </outline>
</glyph>
<glyph name="yu-ar.fina" format="1">
  <advance width="506"/>
  <unicode hex="FBDC"/>
  <outline>
    <component base="waw-ar.fina"/>
    <component base="alefabove-ar" xOffset="124" yOffset="-159"/>
    <contour>
      <point x="326" y="-211" type="move" name="bottom"/>
    </contour>
    <contour>
      <point x="170" y="640" type="move" name="top"/>
    </contour>
  </outline>
</glyph>
<glyph name="e-ar.medi" format="1">
  <advance width="289"/>
  <unicode hex="FBE7"/>
  <outline>
    <component base="beeh-ar.medi"/>
    <contour>
      <point x="121" y="-358" type="move" name="bottom"/>
    </contour>
    <contour>
      <point x="112" y="304" type="move" name="top"/>
    </contour>
  </outline>
</glyph>
<glyph name="yeh-farsi.fina" format="1">
  <advance width="793"/>
  <unicode hex="FBFD"/>
  <outline>
    <component base="alefMaksura-ar.fina"/>
    <contour>
      <point x="633" y="-110" type="move" name="bottom"/>
    </contour>
    <contour>
      <point x="444" y="289" type="move" name="top"/>
    </contour>
  </outline>
</glyph>
<glyph name="yeh-farsi.init" format="1">
  <advance width="277"/>
  <unicode hex="FBFE"/>
  <outline>
    <component base="behDotless-ar.init"/>
    <component base="twodotshorizontalbelow-ar" xOffset="-99" yOffset="-29"/>
    <contour>
      <point x="84" y="-212" type="move" name="bottom"/>
    </contour>
    <contour>
      <point x="124" y="301" type="move" name="top"/>
    </contour>
  </outline>
</glyph>
<glyph name="allah-ar" format="1">
  <advance width="919"/>
  <unicode hex="FDF2"/>
  <outline>
    <contour>
      <point x="368" y="158" type="curve" smooth="yes"/>
      <point x="368" y="102"/>
      <point x="365" y="93"/>
      <point x="305" y="90" type="curve" smooth="yes"/>
      <point x="278" y="89"/>
      <point x="166" y="88"/>
      <point x="166" y="98" type="curve" smooth="yes"/>
      <point x="166" y="145"/>
      <point x="309" y="286"/>
      <point x="354" y="286" type="curve" smooth="yes"/>
      <point x="359" y="286"/>
      <point x="368" y="267"/>
    </contour>
    <contour>
      <point x="851" y="567" type="curve"/>
      <point x="846" y="574"/>
      <point x="842" y="578"/>
      <point x="839" y="578" type="curve" smooth="yes"/>
      <point x="823" y="578"/>
      <point x="798" y="572"/>
      <point x="769" y="554" type="curve"/>
      <point x="784" y="424"/>
      <point x="792" y="226"/>
      <point x="791" y="-21" type="curve"/>
      <point x="808" y="-23"/>
      <point x="839" y="-18"/>
      <point x="848" y="-6" type="curve"/>
      <point x="848" y="7"/>
      <point x="849" y="87"/>
      <point x="849" y="161" type="curve" smooth="yes"/>
      <point x="848" y="253"/>
      <point x="852" y="463"/>
    </contour>
    <contour>
      <point x="714" y="190" type="curve" smooth="yes"/>
      <point x="713" y="300"/>
      <point x="706" y="407"/>
      <point x="700" y="535" type="curve"/>
      <point x="695" y="542"/>
      <point x="691" y="546"/>
      <point x="688" y="546" type="curve" smooth="yes"/>
      <point x="672" y="546"/>
      <point x="632" y="527"/>
      <point x="603" y="509" type="curve"/>
      <point x="632" y="394"/>
      <point x="660" y="242"/>
      <point x="660" y="160" type="curve" smooth="yes"/>
      <point x="660" y="94"/>
      <point x="643" y="90"/>
      <point x="608" y="90" type="curve" smooth="yes"/>
      <point x="586" y="90" type="line" smooth="yes"/>
      <point x="565" y="90"/>
      <point x="559" y="92"/>
      <point x="558" y="140" type="curve" smooth="yes"/>
      <point x="555" y="300"/>
      <point x="551" y="367"/>
      <point x="544" y="475" type="curve"/>
      <point x="539" y="482"/>
      <point x="535" y="486"/>
      <point x="532" y="486" type="curve" smooth="yes"/>
      <point x="516" y="486"/>
      <point x="476" y="467"/>
      <point x="447" y="449" type="curve"/>
      <point x="482" y="324"/>
      <point x="499" y="232"/>
      <point x="499" y="140" type="curve" smooth="yes"/>
      <point x="499" y="94"/>
      <point x="493" y="90"/>
      <point x="464" y="90" type="curve" smooth="yes"/>
      <point x="454" y="90" type="line" smooth="yes"/>
      <point x="418" y="90"/>
      <point x="427" y="192"/>
      <point x="418" y="356" type="curve"/>
      <point x="412" y="369"/>
      <point x="380" y="395"/>
      <point x="364" y="395" type="curve" smooth="yes"/>
      <point x="320" y="395"/>
      <point x="98" y="194"/>
      <point x="62" y="98" type="curve" smooth="yes"/>
      <point x="57" y="84"/>
      <point x="67" y="24"/>
      <point x="81" y="0" type="curve"/>
      <point x="172" y="4"/>
      <point x="277" y="0"/>
      <point x="384" y="0" type="curve" smooth="yes"/>
      <point x="586" y="0" type="line"/>
      <point x="622" y="0" type="line" smooth="yes"/>
      <point x="734" y="0"/>
      <point x="715" y="37"/>
    </contour>
    <contour>
      <point x="749" y="0" type="move" name="caret_1"/>
    </contour>
    <contour>
      <point x="606" y="0" type="move" name="caret_2"/>
    </contour>
    <contour>
      <point x="463" y="0" type="move" name="caret_3"/>
    </contour>
    <contour>
      <point x="811" y="614" type="move" name="top_1"/>
    </contour>
    <contour>
      <point x="635" y="562" type="move" name="top_2"/>
    </contour>
    <contour>
      <point x="465" y="493" type="move" name="top_3"/>
    </contour>
    <contour>
      <point x="232" y="359" type="move" name="top_4"/>
    </contour>
  </outline>
</glyph>
<glyph name="alefHamzaabove-ar.fina" format="1">
  <advance width="227"/>
  <unicode hex="FE84"/>
  <outline>
    <contour>
      <point x="133" y="379" type="curve"/>
      <point x="133" y="406"/>
      <point x="134" y="409"/>
      <point x="138" y="409" type="curve" smooth="yes"/>
      <point x="237" y="409" type="line"/>
      <point x="237" y="418"/>
      <point x="236" y="442"/>
      <point x="232" y="442" type="curve" smooth="yes"/>
      <point x="140" y="442" type="line" smooth="yes"/>
      <point x="133" y="442"/>
      <point x="137" y="464"/>
      <point x="143" y="464" type="curve" smooth="yes"/>
      <point x="237" y="464" type="line"/>
      <point x="237" y="474"/>
      <point x="236" y="497"/>
      <point x="232" y="497" type="curve" smooth="yes"/>
      <point x="141" y="497" type="line" smooth="yes"/>
      <point x="136" y="497"/>
      <point x="139" y="520"/>
      <point x="145" y="520" type="curve" smooth="yes"/>
      <point x="237" y="520" type="line"/>
      <point x="237" y="529"/>
      <point x="236" y="553"/>
      <point x="232" y="553" type="curve" smooth="yes"/>
      <point x="142" y="553" type="line" smooth="yes"/>
      <point x="136" y="553"/>
      <point x="136" y="554"/>
      <point x="136" y="568" type="curve"/>
      <point x="127" y="568"/>
      <point x="127" y="553"/>
      <point x="117" y="553" type="curve"/>
      <point x="111" y="409" type="line"/>
      <point x="119" y="409"/>
      <point x="123" y="396"/>
    </contour>
    <component base="alef-ar.fina"/>
    <contour>
      <point x="107" y="-140" type="move" name="bottom"/>
    </contour>
    <contour>
      <point x="83" y="631" type="move" name="top"/>
    </contour>
  </outline>
</glyph>
<glyph name="alefHamzabelow-ar.fina" format="1">
  <advance width="191"/>
  <unicode hex="FE88"/>
  <outline>
    <contour>
      <point x="55" y="554" type="curve"/>
      <point x="81" y="329"/>
      <point x="75" y="-167"/>
      <point x="84" y="-167" type="curve"/>
      <point x="99" y="-167"/>
      <point x="111" y="-167"/>
      <point x="129" y="-161" type="curve"/>
      <point x="129" y="-158"/>
      <point x="130" y="0"/>
      <point x="140" y="0" type="curve" smooth="yes"/>
      <point x="246" y="0" type="line"/>
      <point x="246" y="7" type="line"/>
      <point x="247" y="90" type="line"/>
      <point x="132" y="90"/>
      <point x="133" y="92"/>
      <point x="133" y="140" type="curve" smooth="yes"/>
      <point x="133" y="345" type="line" smooth="yes"/>
      <point x="133" y="401"/>
      <point x="134" y="492"/>
      <point x="136" y="568" type="curve"/>
      <point x="131" y="575"/>
      <point x="128" y="579"/>
      <point x="125" y="579" type="curve" smooth="yes"/>
      <point x="109" y="579"/>
      <point x="84" y="572"/>
    </contour>
    <contour>
      <point x="84" y="-167" type="line"/>
      <point x="231" y="-167" type="line"/>
      <point x="231" y="-158"/>
      <point x="230" y="-134"/>
      <point x="226" y="-134" type="curve" smooth="yes"/>
      <point x="134" y="-134" type="line" smooth="yes"/>
      <point x="127" y="-134"/>
      <point x="131" y="-112"/>
      <point x="137" y="-112" type="curve" smooth="yes"/>
      <point x="231" y="-112" type="line"/>
      <point x="231" y="-102"/>
      <point x="230" y="-79"/>
      <point x="226" y="-79" type="curve" smooth="yes"/>
      <point x="135" y="-79" type="line" smooth="yes"/>
      <point x="130" y="-79"/>
      <point x="133" y="-56"/>
      <point x="139" y="-56" type="curve" smooth="yes"/>
      <point x="231" y="-56" type="line"/>
      <point x="231" y="-47"/>
      <point x="230" y="-23"/>
      <point x="226" y="-23" type="curve" smooth="yes"/>
      <point x="141" y="-23" type="line" smooth="yes"/>
      <point x="135" y="-23"/>
      <point x="135" y="-20"/>
      <point x="137" y="-4" type="curve"/>
      <point x="128" y="-4"/>
      <point x="124" y="-23"/>
      <point x="114" y="-23" type="curve"/>
    </contour>
    <contour>
      <point x="107" y="-230" type="move" name="bottom"/>
    </contour>
    <contour>
      <point x="83" y="631" type="move" name="top"/>
    </contour>
  </outline>
</glyph>
<glyph name="yehHamzaabove-ar.init" format="1">
  <advance width="277"/>
  <unicode hex="FE8B"/>
  <outline>
    <component base="hamzaabove-ar" xOffset="40" yOffset="-194"/>
    <component base="behDotless-ar.init"/>
    <contour>
      <point x="175" y="-30" type="move" name="bottom"/>
    </contour>
    <contour>
      <point x="115" y="500" type="move" name="top"/>
    </contour>
  </outline>
</glyph>
<glyph name="yehHamzaabove-ar.medi" format="1">
  <advance width="289"/>
  <unicode hex="FE8C"/>
  <outline>
    <component base="hamzaabove-ar" xOffset="52" yOffset="-194"/>
    <component base="behDotless-ar.medi"/>
    <contour>
      <point x="177" y="-30" type="move" name="bottom"/>
    </contour>
    <contour>
      <point x="127" y="500" type="move" name="top"/>
    </contour>
  </outline>
</glyph>
<glyph name="beh-ar.fina" format="1">
  <advance width="425"/>
  <unicode hex="FE90"/>
  <outline>
    <component base="behDotless-ar.fina"/>
    <component base="dotbelow-ar" xOffset="142" yOffset="-30"/>
    <contour>
      <point x="294" y="-227" type="move" name="bottom"/>
    </contour>
    <contour>
      <point x="235" y="300" type="move" name="top"/>
    </contour>
  </outline>
</glyph>
<glyph name="beh-ar.init" format="1">
  <advance width="277"/>
  <unicode hex="FE91"/>
  <outline>
    <component base="dotbelow-ar" xOffset="25" yOffset="-30"/>
    <component base="behDotless-ar.init"/>
    <contour>
      <point x="134" y="-227" type="move" name="bottom"/>
    </contour>
    <contour>
      <point x="125" y="300" type="move" name="top"/>
    </contour>
  </outline>
</glyph>
<glyph name="beh-ar.medi" format="1">
  <advance width="289"/>
  <unicode hex="FE92"/>
  <outline>
    <component base="behDotless-ar.medi"/>
    <component base="dotbelow-ar" xOffset="14" yOffset="-30"/>
    <contour>
      <point x="121" y="-227" type="move" name="bottom"/>
    </contour>
    <contour>
      <point x="125" y="300" type="move" name="top"/>
    </contour>
  </outline>
</glyph>
<glyph name="tehMarbuta-ar.fina" format="1">
  <advance width="511"/>
  <unicode hex="FE94"/>
  <outline>
    <component base="heh-ar.fina"/>
    <component base="twodotshorizontalabove-ar" xOffset="116" yOffset="133"/>
    <contour>
      <point x="273" y="-30" type="move" name="bottom"/>
    </contour>
    <contour>
      <point x="271" y="598" type="move" name="top"/>
    </contour>
  </outline>
</glyph>
<glyph name="teh-ar.init" format="1">
  <advance width="312"/>
  <unicode hex="FE97"/>
  <outline>
    <component base="twodotshorizontalabove-ar" xOffset="-42" yOffset="15"/>
    <component base="behDotless-ar.init"/>
    <contour>
      <point x="82" y="-30" type="move" name="bottom"/>
    </contour>
    <contour>
      <point x="106" y="474" type="move" name="top"/>
    </contour>
  </outline>
</glyph>
<glyph name="theh-ar.fina" format="1">
  <advance width="425"/>
  <unicode hex="FE9A"/>
  <outline>
    <component base="behDotless-ar.fina"/>
    <component base="threedotsupabove-ar" xOffset="77" yOffset="15"/>
    <contour>
      <point x="215" y="-30" type="move" name="bottom"/>
    </contour>
    <contour>
      <point x="211" y="646" type="move" name="top"/>
    </contour>
  </outline>
</glyph>
<glyph name="theh-ar.init" format="1">
  <advance width="282"/>
  <unicode hex="FE9B"/>
  <outline>
    <component base="threedotsupabove-ar" xOffset="-62" yOffset="15"/>
    <component base="behDotless-ar.init"/>
    <contour>
      <point x="135" y="-30" type="move" name="bottom"/>
    </contour>
    <contour>
      <point x="71" y="646" type="move" name="top"/>
    </contour>
  </outline>
</glyph>
<glyph name="hah-ar.init" format="1">
  <advance width="593"/>
  <unicode hex="FEA3"/>
  <outline>
    <contour>
      <point x="430" y="121" type="curve" smooth="yes"/>
      <point x="430" y="94"/>
      <point x="424" y="90"/>
      <point x="414" y="90" type="curve" smooth="yes"/>
      <point x="-20" y="90" type="line"/>
      <point x="-20" y="0" type="line"/>
      <point x="536" y="0" type="line" smooth="yes"/>
      <point x="542" y="0"/>
      <point x="548" y="2"/>
      <point x="548" y="19" type="curve" smooth="yes"/>
      <point x="548" y="35"/>
      <point x="541" y="68"/>
      <point x="529" y="90" type="curve"/>
      <point x="519" y="90" type="line" smooth="yes"/>
      <point x="509" y="90"/>
      <point x="498" y="93"/>
      <point x="495" y="106" type="curve" smooth="yes"/>
      <point x="456" y="277"/>
      <point x="440" y="328"/>
      <point x="411" y="328" type="curve" smooth="yes"/>
      <point x="350" y="328"/>
      <point x="263" y="291"/>
      <point x="129" y="291" type="curve" smooth="yes"/>
      <point x="107" y="291"/>
      <point x="83" y="292"/>
      <point x="58" y="294" type="curve"/>
      <point x="58" y="261"/>
      <point x="74" y="194"/>
      <point x="127" y="194" type="curve" smooth="yes"/>
      <point x="205" y="194"/>
      <point x="315" y="237"/>
      <point x="390" y="237" type="curve" smooth="yes"/>
      <point x="413" y="237"/>
      <point x="430" y="153"/>
    </contour>
    <contour>
      <point x="281" y="-30" type="move" name="bottom"/>
    </contour>
    <contour>
      <point x="260" y="178" type="move" name="center"/>
    </contour>
    <contour>
      <point x="272" y="358" type="move" name="top"/>
    </contour>
  </outline>
</glyph>
<glyph name="khah-ar.init" format="1">
  <advance width="593"/>
  <unicode hex="FEA7"/>
  <outline>
    <component base="hah-ar.init"/>
    <component base="dotabove-ar" xOffset="163" yOffset="39"/>
    <contour>
      <point x="281" y="-30" type="move" name="bottom"/>
    </contour>
    <contour>
      <point x="269" y="553" type="move" name="top"/>
    </contour>
  </outline>
</glyph>
<glyph name="thal-ar.fina" format="1">
  <advance width="434"/>
  <unicode hex="FEAC"/>
  <outline>
    <component base="dal-ar.fina"/>
    <component base="dotabove-ar" xOffset="160" yOffset="-19"/>
    <contour>
      <point x="306" y="-60" type="move" name="bottom"/>
    </contour>
    <contour>
      <point x="259" y="484" type="move" name="top"/>
    </contour>
  </outline>
</glyph>
<glyph name="zain-ar.fina" format="1">
  <advance width="328"/>
  <unicode hex="FEB0"/>
  <outline>
    <component base="reh-ar.fina"/>
    <component base="dotabove-ar" xOffset="36" yOffset="1"/>
    <contour>
      <point x="156" y="-191" type="move" name="bottom"/>
    </contour>
    <contour>
      <point x="105" y="495" type="move" name="top"/>
    </contour>
  </outline>
</glyph>
<glyph name="sheen-ar.fina" format="1">
  <advance width="1078"/>
  <unicode hex="FEB6"/>
  <outline>
    <component base="seen-ar.fina"/>
    <component base="threedotsupabove-ar" xOffset="660" yOffset="25"/>
    <contour>
      <point x="858" y="-30" type="move" name="bottom"/>
    </contour>
    <contour>
      <point x="795" y="660" type="move" name="top"/>
    </contour>
  </outline>
</glyph>
<glyph name="sheen-ar.init" format="1">
  <advance width="551"/>
  <unicode hex="FEB7"/>
  <outline>
    <component base="seen-ar.init"/>
    <component base="threedotsupabove-ar" xOffset="139" yOffset="25"/>
    <contour>
      <point x="343" y="-30" type="move" name="bottom"/>
    </contour>
    <contour>
      <point x="315" y="660" type="move" name="top"/>
    </contour>
  </outline>
</glyph>
<glyph name="sheen-ar.medi" format="1">
  <advance width="575"/>
  <unicode hex="FEB8"/>
  <outline>
    <component base="seen-ar.medi"/>
    <component base="threedotsupabove-ar" xOffset="152" yOffset="26"/>
    <contour>
      <point x="343" y="-30" type="move" name="bottom"/>
    </contour>
    <contour>
      <point x="323" y="650" type="move" name="top"/>
    </contour>
  </outline>
</glyph>
<glyph name="dad-ar.fina" format="1">
  <advance width="1209"/>
  <unicode hex="FEBE"/>
  <outline>
    <component base="sad-ar.fina"/>
    <component base="dotabove-ar" xOffset="758" yOffset="96"/>
    <contour>
      <point x="858" y="-30" type="move" name="bottom"/>
    </contour>
    <contour>
      <point x="869" y="605" type="move" name="top"/>
    </contour>
  </outline>
</glyph>
<glyph name="zah-ar.init" format="1">
  <advance width="759"/>
  <unicode hex="FEC7"/>
  <outline>
    <component base="tah-ar.init"/>
    <component base="dotabove-ar" xOffset="282" yOffset="86"/>
    <contour>
      <point x="408" y="-30" type="move" name="bottom"/>
    </contour>
    <contour>
      <point x="388" y="585" type="move" name="top"/>
    </contour>
  </outline>
</glyph>
<glyph name="zah-ar.medi" format="1">
  <advance width="733"/>
  <unicode hex="FEC8"/>
  <outline>
    <component base="tah-ar.medi"/>
    <component base="dotabove-ar" xOffset="272" yOffset="86"/>
    <contour>
      <point x="399" y="-30" type="move" name="bottom"/>
    </contour>
    <contour>
      <point x="379" y="585" type="move" name="top"/>
    </contour>
  </outline>
</glyph>
<glyph name="feh-ar.fina" format="1">
  <advance width="504"/>
  <unicode hex="FED2"/>
  <outline>
    <component base="fehDotless-ar.fina"/>
    <component base="dotabove-ar" xOffset="45" yOffset="181"/>
    <contour>
      <point x="282" y="-30" type="move" name="bottom"/>
    </contour>
    <contour>
      <point x="153" y="709" type="move" name="top"/>
    </contour>
  </outline>
</glyph>
<glyph name="qaf-ar.fina" format="1">
  <advance width="723"/>
  <unicode hex="FED6"/>
  <outline>
    <component base="qafDotless-ar.fina"/>
    <component base="twodotshorizontalabove-ar" xOffset="198" yOffset="9"/>
    <contour>
      <point x="641" y="-123" type="move" name="bottom"/>
    </contour>
    <contour>
      <point x="341" y="520" type="move" name="top"/>
    </contour>
  </outline>
</glyph>
<glyph name="meem-ar.init" format="1">
  <advance width="428"/>
  <unicode hex="FEE3"/>
  <outline>
    <contour>
      <point x="-20" y="0" type="line"/>
      <point x="272" y="0" type="line" smooth="yes"/>
      <point x="337" y="0"/>
      <point x="363" y="82"/>
      <point x="363" y="198" type="curve" smooth="yes"/>
      <point x="363" y="331"/>
      <point x="299" y="388"/>
      <point x="232" y="388" type="curve" smooth="yes"/>
      <point x="165" y="388"/>
      <point x="95" y="329"/>
      <point x="95" y="192" type="curve" smooth="yes"/>
      <point x="95" y="104"/>
      <point x="90" y="90"/>
      <point x="45" y="90" type="curve" smooth="yes"/>
      <point x="-20" y="90" type="line"/>
    </contour>
    <contour>
      <point x="153" y="189" type="curve" smooth="yes"/>
      <point x="153" y="258"/>
      <point x="192" y="286"/>
      <point x="229" y="286" type="curve" smooth="yes"/>
      <point x="269" y="286"/>
      <point x="303" y="251"/>
      <point x="303" y="183" type="curve" smooth="yes"/>
      <point x="303" y="104"/>
      <point x="282" y="90"/>
      <point x="226" y="90" type="curve" smooth="yes"/>
      <point x="170" y="90"/>
      <point x="153" y="111"/>
    </contour>
    <contour>
      <point x="224" y="-30" type="move" name="bottom"/>
    </contour>
    <contour>
      <point x="232" y="440" type="move" name="top"/>
    </contour>
  </outline>
</glyph>
<glyph name="yeh-ar.fina" format="1">
  <advance width="793"/>
  <unicode hex="FEF2"/>
  <outline>
    <component base="alefMaksura-ar.fina"/>
    <component base="twodotshorizontalbelow-ar" xOffset="-2" yOffset="-323"/>
    <contour>
      <point x="159" y="-512" type="move" name="bottom"/>
    </contour>
    <contour>
      <point x="440" y="297" type="move" name="top"/>
    </contour>
  </outline>
</glyph>
<glyph name="lam_alefMadda-ar" format="1">
  <advance width="445"/>
  <unicode hex="FEF5"/>
  <outline>
    <component base="lam_alef-ar"/>
    <component base="madda-ar" xOffset="-80"/>
    <contour>
      <point x="362" y="-30" type="move" name="bottom_1"/>
    </contour>
    <contour>
      <point x="99" y="-30" type="move" name="bottom_2"/>
    </contour>
    <contour>
      <point x="237" y="0" type="move" name="caret_1"/>
    </contour>
    <contour>
      <point x="304" y="664" type="move" name="top_1"/>
    </contour>
    <contour>
      <point x="66" y="731" type="move" name="top_2"/>
    </contour>
  </outline>
</glyph>
<glyph name="lam_alefMadda-ar.fina" format="1">
  <advance width="517"/>
  <unicode hex="FEF6"/>
  <outline>
    <component base="lam_alef-ar.fina"/>
    <component base="madda-ar" xOffset="-75"/>
    <contour>
      <point x="477" y="-30" type="move" name="bottom_1"/>
    </contour>
    <contour>
      <point x="90" y="-30" type="move" name="bottom_2"/>
    </contour>
    <contour>
      <point x="309" y="0" type="move" name="caret_1"/>
    </contour>
    <contour>
      <point x="407" y="659" type="move" name="top_1"/>
    </contour>
    <contour>
      <point x="98" y="710" type="move" name="top_2"/>
    </contour>
  </outline>
</glyph>
<glyph name=".notdef" format="1">
  <advance width="1033"/>
  <outline>
    <contour>
      <point x="60" y="-226" type="line"/>
      <point x="973" y="-226" type="line"/>
      <point x="973" y="699" type="line"/>
      <point x="60" y="699" type="line"/>
    </contour>
    <contour>
      <point x="76" y="-209" type="line"/>
      <point x="76" y="682" type="line"/>
      <point x="957" y="682" type="line"/>
      <point x="957" y="-209" type="line"/>
    </contour>
    <contour>
      <point x="593" y="263" type="curve"/>
      <point x="630" y="207"/>
      <point x="644" y="163"/>
      <point x="644" y="136" type="curve" smooth="yes"/>
      <point x="644" y="108"/>
      <point x="509" y="-21"/>
      <point x="335" y="-21" type="curve" smooth="yes"/>
      <point x="249" y="-21"/>
      <point x="183" y="17"/>
      <point x="183" y="98" type="curve" smooth="yes"/>
      <point x="183" y="123"/>
      <point x="189" y="152"/>
      <point x="203" y="184" type="curve"/>
      <point x="201" y="190"/>
      <point x="195" y="192"/>
      <point x="189" y="192" type="curve" smooth="yes"/>
      <point x="188" y="192"/>
      <point x="188" y="192"/>
      <point x="187" y="192" type="curve"/>
      <point x="157" y="144"/>
      <point x="141" y="108"/>
      <point x="141" y="53" type="curve" smooth="yes"/>
      <point x="141" y="-46"/>
      <point x="217" y="-88"/>
      <point x="315" y="-88" type="curve" smooth="yes"/>
      <point x="435" y="-88"/>
      <point x="554" y="-40"/>
      <point x="678" y="75" type="curve" smooth="yes"/>
      <point x="683" y="81"/>
      <point x="684" y="82"/>
      <point x="691" y="82" type="curve" smooth="yes"/>
      <point x="848" y="82" type="line"/>
      <point x="887" y="82"/>
      <point x="900" y="129"/>
      <point x="900" y="183" type="curve" smooth="yes"/>
      <point x="900" y="215"/>
      <point x="898" y="251"/>
      <point x="889" y="281" type="curve"/>
      <point x="887" y="287"/>
      <point x="885" y="291"/>
      <point x="876" y="291" type="curve"/>
      <point x="870" y="287"/>
      <point x="848" y="277"/>
      <point x="826" y="263" type="curve"/>
      <point x="837" y="238"/>
      <point x="858" y="196"/>
      <point x="858" y="163" type="curve" smooth="yes"/>
      <point x="858" y="150"/>
      <point x="853" y="148"/>
      <point x="844" y="148" type="curve" smooth="yes"/>
      <point x="819" y="148" type="line" smooth="yes"/>
      <point x="795" y="148"/>
      <point x="794" y="156"/>
      <point x="792" y="183" type="curve" smooth="yes"/>
      <point x="789" y="215"/>
      <point x="785" y="251"/>
      <point x="775" y="281" type="curve"/>
      <point x="774" y="287"/>
      <point x="771" y="291"/>
      <point x="763" y="291" type="curve"/>
      <point x="756" y="287"/>
      <point x="735" y="277"/>
      <point x="713" y="263" type="curve"/>
      <point x="724" y="238"/>
      <point x="750" y="196"/>
      <point x="750" y="163" type="curve" smooth="yes"/>
      <point x="750" y="150"/>
      <point x="746" y="148"/>
      <point x="736" y="148" type="curve" smooth="yes"/>
      <point x="695" y="148" type="line" smooth="yes"/>
      <point x="678" y="148"/>
      <point x="682" y="199"/>
      <point x="658" y="272" type="curve" smooth="yes"/>
      <point x="653" y="287"/>
      <point x="650" y="291"/>
      <point x="642" y="291" type="curve"/>
      <point x="634" y="287"/>
      <point x="608" y="273"/>
    </contour>
    <contour>
      <point x="696" y="433" type="curve"/>
      <point x="711" y="428"/>
      <point x="746" y="428"/>
      <point x="779" y="435" type="curve"/>
      <point x="787" y="476"/>
      <point x="787" y="504"/>
      <point x="779" y="524" type="curve"/>
      <point x="762" y="531"/>
      <point x="731" y="530"/>
      <point x="696" y="522" type="curve"/>
      <point x="688" y="481"/>
      <point x="689" y="454"/>
    </contour>
    <contour>
      <point x="656" y="324" type="curve"/>
      <point x="668" y="320"/>
      <point x="698" y="320"/>
      <point x="726" y="327" type="curve"/>
      <point x="731" y="360"/>
      <point x="731" y="383"/>
      <point x="726" y="401" type="curve"/>
      <point x="711" y="406"/>
      <point x="685" y="406"/>
      <point x="656" y="399" type="curve"/>
      <point x="649" y="365"/>
      <point x="650" y="343"/>
    </contour>
    <contour>
      <point x="759" y="335" type="curve"/>
      <point x="771" y="330"/>
      <point x="800" y="330"/>
      <point x="828" y="337" type="curve"/>
      <point x="834" y="370"/>
      <point x="834" y="393"/>
      <point x="828" y="411" type="curve"/>
      <point x="814" y="417"/>
      <point x="788" y="416"/>
      <point x="759" y="409" type="curve"/>
      <point x="752" y="375"/>
      <point x="753" y="353"/>
    </contour>
  </outline>
</glyph>
<glyph name="ainThreedots-ar.fina.alt.ss05" format="1">
  <advance width="584"/>
  <outline>
    <component base="ain-ar.fina.ss06"/>
    <component base="threedots-ar.small" xOffset="181" yOffset="695"/>
    <component base="dotabove-ar" xOffset="179" yOffset="206"/>
    <contour>
      <point x="288" y="-334" type="move" name="bottom"/>
    </contour>
    <contour>
      <point x="303" y="924" type="move" name="top"/>
    </contour>
  </outline>
</glyph>
<glyph name="ainThreedots-ar.fina" format="1">
  <advance width="584"/>
  <outline>
    <component base="ain-ar.fina"/>
    <component base="threedotsupabove-ar" xOffset="133" yOffset="240"/>
    <contour>
      <point x="288" y="-58" type="move" name="bottom"/>
    </contour>
    <contour>
      <point x="298" y="864" type="move" name="top"/>
    </contour>
  </outline>
</glyph>
<glyph name="ainThreedots-ar.medi" format="1">
  <advance width="522"/>
  <outline>
    <component base="ain-ar.medi"/>
    <component base="threedotsupabove-ar" xOffset="115" yOffset="254"/>
    <contour>
      <point x="271" y="-30" type="move" name="bottom"/>
    </contour>
    <contour>
      <point x="281" y="879" type="move" name="top"/>
    </contour>
  </outline>
</glyph>
<glyph name="ainThreedots-ar.medi.ss05" format="1">
  <advance width="522"/>
  <outline>
    <component base="ain-ar.medi"/>
    <component base="threedots-ar.small" xOffset="172" yOffset="716"/>
    <component base="dotabove-ar" xOffset="171" yOffset="230"/>
    <contour>
      <point x="271" y="-30" type="move" name="bottom"/>
    </contour>
    <contour>
      <point x="294" y="945" type="move" name="top"/>
    </contour>
  </outline>
</glyph>
<glyph name="ainTwodotshorizontalabove-ar.init" format="1">
  <advance width="503"/>
  <outline>
    <component base="ain-ar.init"/>
    <component base="twodotshorizontalabove-ar" xOffset="106" yOffset="64"/>
    <contour>
      <point x="271" y="-30" type="move" name="bottom"/>
    </contour>
    <contour>
      <point x="268" y="547" type="move" name="top"/>
    </contour>
  </outline>
</glyph>
<glyph name="alef-ar.high" format="1">
  <advance width="105"/>
  <outline>
    <contour>
      <point x="80" y="697" type="curve"/>
      <point x="75" y="703"/>
      <point x="72" y="707"/>
      <point x="69" y="707" type="curve" smooth="yes"/>
      <point x="54" y="707"/>
      <point x="32" y="702"/>
      <point x="5" y="685" type="curve"/>
      <point x="19" y="568"/>
      <point x="26" y="388"/>
      <point x="25" y="164" type="curve"/>
      <point x="41" y="163"/>
      <point x="69" y="167"/>
      <point x="77" y="178" type="curve"/>
      <point x="77" y="190"/>
      <point x="78" y="262"/>
      <point x="78" y="329" type="curve" smooth="yes"/>
      <point x="78" y="413"/>
      <point x="80" y="603"/>
    </contour>
    <contour>
      <point x="46" y="129" type="move" name="bottom"/>
    </contour>
    <contour>
      <point x="32" y="735" type="move" name="top"/>
    </contour>
  </outline>
</glyph>
<glyph name="alef-ar.short" format="1">
  <advance width="205"/>
  <outline>
    <component base="alef-ar"/>
    <contour>
      <point x="99" y="-56" type="move" name="bottom"/>
    </contour>
    <contour>
      <point x="87" y="570" type="move" name="top"/>
    </contour>
  </outline>
</glyph>
<glyph name="alefMaksura-ar.alt" format="1">
  <advance width="766"/>
  <outline>
    <component base="alefMaksura-ar"/>
    <contour>
      <point x="596" y="-164" type="move" name="bottom"/>
    </contour>
    <contour>
      <point x="475" y="261" type="move" name="top"/>
    </contour>
  </outline>
</glyph>
<glyph name="beeh-ar.init.ss05" format="1">
  <advance width="277"/>
  <outline>
    <component base="behDotless-ar.init"/>
    <component base="dotbelow-ar" xOffset="-21" yOffset="-30"/>
    <component base="threedots-ar.small" xOffset="-10" yOffset="312"/>
    <contour>
      <point x="85" y="-227" type="move" name="bottom"/>
    </contour>
    <contour>
      <point x="97" y="550" type="move" name="top"/>
    </contour>
  </outline>
</glyph>
<glyph name="beeh-ar.ss05" format="1">
  <advance width="542"/>
  <outline>
    <component base="behDotless-ar"/>
    <component base="dotbelow-ar" xOffset="159" yOffset="-30"/>
    <component base="threedots-ar.small" xOffset="164" yOffset="302"/>
    <contour>
      <point x="265" y="-227" type="move" name="bottom"/>
    </contour>
    <contour>
      <point x="267" y="550" type="move" name="top"/>
    </contour>
  </outline>
</glyph>
<glyph name="behThreedotsupbelow-ar.init" format="1">
  <advance width="277"/>
  <outline>
    <component base="behDotless-ar.init"/>
    <component base="threedotsupbelow-ar" xOffset="-70" yOffset="-30"/>
    <contour>
      <point x="86" y="-388" type="move" name="bottom"/>
    </contour>
    <contour>
      <point x="101" y="314" type="move" name="top"/>
    </contour>
  </outline>
</glyph>
<glyph name="behThreedotsupbelow-ar.medi" format="1">
  <advance width="289"/>
  <outline>
    <component base="behDotless-ar.medi"/>
    <component base="threedotsupbelow-ar" xOffset="-29" yOffset="-30"/>
    <contour>
      <point x="131" y="-365" type="move" name="bottom"/>
    </contour>
    <contour>
      <point x="111" y="314" type="move" name="top"/>
    </contour>
  </outline>
</glyph>
<glyph name="behVabove-ar.fina" format="1">
  <advance width="425"/>
  <outline>
    <component base="behDotless-ar.fina"/>
    <component base="vabove-ar" xOffset="127" yOffset="-174"/>
    <contour>
      <point x="261" y="-30" type="move" name="bottom"/>
    </contour>
    <contour>
      <point x="230" y="486" type="move" name="top"/>
    </contour>
  </outline>
</glyph>
<glyph name="behVabove-ar.medi.alt" format="1">
  <advance width="207"/>
  <outline>
    <component base="behDotless-ar.medi.alt"/>
    <component base="vabove-ar" xOffset="-75" yOffset="2"/>
    <contour>
      <point x="111" y="-30" type="move" name="bottom"/>
    </contour>
    <contour>
      <point x="38" y="635" type="move" name="top"/>
    </contour>
  </outline>
</glyph>
<glyph name="behVabove-ar.medi" format="1">
  <advance width="289"/>
  <outline>
    <component base="behDotless-ar.medi"/>
    <component base="vabove-ar" xOffset="-10" yOffset="-174"/>
    <contour>
      <point x="121" y="-30" type="move" name="bottom"/>
    </contour>
    <contour>
      <point x="100" y="486" type="move" name="top"/>
    </contour>
  </outline>
</glyph>
<glyph name="behVbelow-ar.fina" format="1">
  <advance width="425"/>
  <outline>
    <component base="behDotless-ar.fina"/>
    <component base="vinvertedabove-ar" yScale="-1" xOffset="118" yOffset="474"/>
    <contour>
      <point x="222" y="-226" type="move" name="bottom"/>
    </contour>
    <contour>
      <point x="255" y="310" type="move" name="top"/>
    </contour>
  </outline>
</glyph>
<glyph name="behVbelow-ar.init" format="1">
  <advance width="277"/>
  <outline>
    <component base="behDotless-ar.init"/>
    <component base="vinvertedabove-ar" yScale="-1" xOffset="-42" yOffset="474"/>
    <contour>
      <point x="62" y="-226" type="move" name="bottom"/>
    </contour>
    <contour>
      <point x="99" y="310" type="move" name="top"/>
    </contour>
  </outline>
</glyph>
<glyph name="behVbelow-ar.medi.alt" format="1">
  <advance width="207"/>
  <outline>
    <component base="behDotless-ar.medi.alt"/>
    <component base="vinvertedabove-ar" yScale="-1" xOffset="-42" yOffset="474"/>
    <contour>
      <point x="62" y="-226" type="move" name="bottom"/>
    </contour>
    <contour>
      <point x="40" y="486" type="move" name="top"/>
    </contour>
  </outline>
</glyph>
<glyph name="behVinvertedbelow-ar.fina" format="1">
  <advance width="425"/>
  <outline>
    <component base="behDotless-ar.fina"/>
    <component base="vinvertedabove-ar" xOffset="118" yOffset="-686"/>
    <contour>
      <point x="242" y="-196" type="move" name="bottom"/>
    </contour>
    <contour>
      <point x="255" y="310" type="move" name="top"/>
    </contour>
  </outline>
</glyph>
<glyph name="behhamzaabove-ar.init" format="1">
  <advance width="277"/>
  <outline>
    <component base="behDotless-ar.init"/>
    <component base="dotbelow-ar" xOffset="-27" yOffset="-30"/>
    <component base="hamzaabove-ar" xOffset="22" yOffset="-205"/>
    <contour>
      <point x="84" y="-227" type="move" name="bottom"/>
    </contour>
    <contour>
      <point x="105" y="500" type="move" name="top"/>
    </contour>
  </outline>
</glyph>
<glyph name="behhamzaabove-ar.medi.alt" format="1">
  <advance width="207"/>
  <outline>
    <component base="behDotless-ar.medi.alt"/>
    <component base="dotbelow-ar" xOffset="-20" yOffset="-34"/>
    <component base="hamzaabove-ar" xOffset="-37" yOffset="-29"/>
    <contour>
      <point x="134" y="-227" type="move" name="bottom"/>
    </contour>
    <contour>
      <point x="40" y="677" type="move" name="top"/>
    </contour>
  </outline>
</glyph>
<glyph name="behhamzaabove-ar.medi" format="1">
  <advance width="289"/>
  <outline>
    <component base="behDotless-ar.medi"/>
    <component base="dotbelow-ar" xOffset="14" yOffset="-30"/>
    <component base="hamzaabove-ar" xOffset="28" yOffset="-205"/>
    <contour>
      <point x="151" y="-227" type="move" name="bottom"/>
    </contour>
    <contour>
      <point x="111" y="500" type="move" name="top"/>
    </contour>
  </outline>
</glyph>
<glyph name="dad-ar.init.alt" format="1">
  <advance width="708"/>
  <outline>
    <component base="sad-ar.init.alt"/>
    <component base="dotabove-ar" xOffset="235" yOffset="96"/>
    <contour>
      <point x="340" y="-30" type="move" name="bottom"/>
    </contour>
    <contour>
      <point x="350" y="605" type="move" name="top"/>
    </contour>
  </outline>
</glyph>
<glyph name="dad-ar.medi.alt" format="1">
  <advance width="712"/>
  <outline>
    <component base="sad-ar.medi.alt"/>
    <component base="dotabove-ar" xOffset="230" yOffset="96"/>
    <contour>
      <point x="320" y="-30" type="move" name="bottom"/>
    </contour>
    <contour>
      <point x="340" y="615" type="move" name="top"/>
    </contour>
  </outline>
</glyph>
<glyph name="dal-ar.alt" format="1">
  <advance width="431"/>
  <outline>
    <component base="dal-ar"/>
    <contour>
      <point x="306" y="-60" type="move" name="bottom"/>
    </contour>
    <contour>
      <point x="269" y="300" type="move" name="top"/>
    </contour>
  </outline>
</glyph>
<glyph name="dotvowelbelow-ar.ss04" format="1">
  <advance width="202"/>
  <outline>
    <contour>
      <point x="101" y="-165" type="curve" smooth="yes"/>
      <point x="125" y="-165"/>
      <point x="144" y="-146"/>
      <point x="144" y="-123" type="curve" smooth="yes"/>
      <point x="144" y="-101"/>
      <point x="125" y="-82"/>
      <point x="101" y="-82" type="curve" smooth="yes"/>
      <point x="77" y="-82"/>
      <point x="58" y="-101"/>
      <point x="58" y="-123" type="curve" smooth="yes"/>
      <point x="58" y="-146"/>
      <point x="77" y="-165"/>
    </contour>
    <contour>
      <point x="99" y="-42" type="move" name="_bottom"/>
    </contour>
    <contour>
      <point x="100" y="-212" type="move" name="bottom"/>
    </contour>
  </outline>
</glyph>
<glyph name="e-ar.medi.alt" format="1">
  <advance width="207"/>
  <outline>
    <component base="behDotless-ar.medi.alt"/>
    <component base="twodotsverticalbelow-ar" yOffset="-34"/>
    <contour>
      <point x="94" y="-351" type="move" name="bottom"/>
    </contour>
    <contour>
      <point x="28" y="489" type="move" name="top"/>
    </contour>
  </outline>
</glyph>
<glyph name="eight.lf" format="1">
  <advance width="516"/>
  <outline>
    <contour>
      <point x="411" y="386"/>
      <point x="456" y="450"/>
      <point x="456" y="505" type="curve" smooth="yes"/>
      <point x="456" y="612"/>
      <point x="361" y="665"/>
      <point x="255" y="665" type="curve" smooth="yes"/>
      <point x="150" y="665"/>
      <point x="55" y="612"/>
      <point x="55" y="510" type="curve" smooth="yes"/>
      <point x="55" y="314"/>
      <point x="396" y="320"/>
      <point x="396" y="151" type="curve" smooth="yes"/>
      <point x="396" y="82"/>
      <point x="337" y="41"/>
      <point x="270" y="41" type="curve" smooth="yes"/>
      <point x="197" y="41"/>
      <point x="130" y="83"/>
      <point x="130" y="167" type="curve" smooth="yes"/>
      <point x="130" y="223"/>
      <point x="163" y="285"/>
      <point x="230" y="324" type="curve"/>
      <point x="192" y="344" type="line"/>
      <point x="86" y="304"/>
      <point x="35" y="225"/>
      <point x="35" y="160" type="curve" smooth="yes"/>
      <point x="35" y="50"/>
      <point x="140" y="-6"/>
      <point x="256" y="-6" type="curve" smooth="yes"/>
      <point x="373" y="-6"/>
      <point x="481" y="51"/>
      <point x="481" y="171" type="curve" smooth="yes"/>
      <point x="481" y="379"/>
      <point x="139" y="388"/>
      <point x="139" y="531" type="curve" smooth="yes"/>
      <point x="139" y="582"/>
      <point x="182" y="616"/>
      <point x="247" y="616" type="curve" smooth="yes"/>
      <point x="308" y="616"/>
      <point x="366" y="585"/>
      <point x="366" y="510" type="curve" smooth="yes"/>
      <point x="366" y="468"/>
      <point x="333" y="399"/>
      <point x="268" y="380" type="curve"/>
      <point x="315" y="360" type="line"/>
    </contour>
  </outline>
</glyph>
<glyph name="endofayah-ar.ss03" format="1">
  <advance width="1250"/>
  <outline>
    <contour>
      <point x="624" y="-392" type="curve" smooth="yes"/>
      <point x="960" y="-392"/>
      <point x="1232" y="-120"/>
      <point x="1232" y="216" type="curve" smooth="yes"/>
      <point x="1232" y="552"/>
      <point x="960" y="824"/>
      <point x="624" y="824" type="curve" smooth="yes"/>
      <point x="289" y="824"/>
      <point x="18" y="551"/>
      <point x="17" y="216" type="curve" smooth="yes"/>
      <point x="18" y="-119"/>
      <point x="289" y="-392"/>
    </contour>
    <contour>
      <point x="1145" y="257" type="line"/>
      <point x="1146" y="221" type="line"/>
      <point x="630" y="737" type="line"/>
      <point x="667" y="735" type="line"/>
    </contour>
    <contour>
      <point x="624" y="-363" type="curve" smooth="yes"/>
      <point x="303" y="-363"/>
      <point x="45" y="-104"/>
      <point x="46" y="216" type="curve" smooth="yes"/>
      <point x="45" y="536"/>
      <point x="303" y="794"/>
      <point x="624" y="794" type="curve" smooth="yes"/>
      <point x="943" y="794"/>
      <point x="1203" y="536"/>
      <point x="1203" y="216" type="curve" smooth="yes"/>
      <point x="1203" y="-104"/>
      <point x="944" y="-363"/>
    </contour>
    <contour>
      <point x="624" y="-337" type="curve" smooth="yes"/>
      <point x="930" y="-335"/>
      <point x="1174" y="-89"/>
      <point x="1176" y="217" type="curve" smooth="yes"/>
      <point x="1174" y="520"/>
      <point x="929" y="766"/>
      <point x="625" y="768" type="curve" smooth="yes"/>
      <point x="319" y="766"/>
      <point x="74" y="521"/>
      <point x="73" y="215" type="curve" smooth="yes"/>
      <point x="74" y="-89"/>
      <point x="320" y="-335"/>
    </contour>
    <contour>
      <point x="1114" y="213" type="line"/>
      <point x="624" y="-276" type="line"/>
      <point x="135" y="213" type="line"/>
      <point x="624" y="702" type="line"/>
    </contour>
    <contour>
      <point x="1140" y="298" type="curve"/>
      <point x="972" y="467" type="line"/>
      <point x="1040" y="534" type="line"/>
      <point x="1093" y="469"/>
      <point x="1127" y="386"/>
    </contour>
    <contour>
      <point x="953" y="486" type="line"/>
      <point x="934" y="505" type="line"/>
      <point x="1005" y="575" type="line"/>
      <point x="1010" y="570"/>
      <point x="1018" y="563"/>
      <point x="1023" y="556" type="curve"/>
    </contour>
    <contour>
      <point x="914" y="525" type="line"/>
      <point x="896" y="543" type="line"/>
      <point x="967" y="612" type="line"/>
      <point x="975" y="605"/>
      <point x="979" y="602"/>
      <point x="986" y="595" type="curve"/>
    </contour>
    <contour>
      <point x="877" y="562" type="line"/>
      <point x="708" y="730" type="line"/>
      <point x="798" y="714"/>
      <point x="882" y="682"/>
      <point x="945" y="629" type="curve"/>
    </contour>
    <contour>
      <point x="582" y="-307" type="line"/>
      <point x="104" y="171" type="line"/>
      <point x="102" y="208" type="line"/>
      <point x="618" y="-308" type="line"/>
    </contour>
    <contour>
      <point x="540" y="-302" type="line"/>
      <point x="452" y="-289"/>
      <point x="370" y="-255"/>
      <point x="304" y="-202" type="curve"/>
      <point x="372" y="-134" type="line"/>
    </contour>
    <contour>
      <point x="353" y="-115" type="line"/>
      <point x="283" y="-185" type="line"/>
      <point x="276" y="-179"/>
      <point x="269" y="-172"/>
      <point x="263" y="-166" type="curve"/>
      <point x="334" y="-96" type="line"/>
    </contour>
    <contour>
      <point x="314" y="-76" type="line"/>
      <point x="244" y="-147" type="line"/>
      <point x="237" y="-140"/>
      <point x="233" y="-137"/>
      <point x="226" y="-128" type="curve"/>
      <point x="296" y="-57" type="line"/>
    </contour>
    <contour>
      <point x="276" y="-38" type="line"/>
      <point x="209" y="-107" type="line"/>
      <point x="157" y="-43"/>
      <point x="124" y="41"/>
      <point x="108" y="130" type="curve"/>
    </contour>
    <contour>
      <point x="666" y="-307" type="line"/>
      <point x="630" y="-308" type="line"/>
      <point x="1146" y="208" type="line"/>
      <point x="1144" y="171" type="line"/>
    </contour>
    <contour>
      <point x="708" y="-302" type="curve"/>
      <point x="876" y="-134" type="line"/>
      <point x="944" y="-202" type="line"/>
      <point x="878" y="-255"/>
      <point x="796" y="-289"/>
    </contour>
    <contour>
      <point x="895" y="-115" type="line"/>
      <point x="914" y="-96" type="line"/>
      <point x="985" y="-166" type="line"/>
      <point x="979" y="-172"/>
      <point x="972" y="-179"/>
      <point x="965" y="-185" type="curve"/>
    </contour>
    <contour>
      <point x="934" y="-76" type="line"/>
      <point x="952" y="-57" type="line"/>
      <point x="1022" y="-128" type="line"/>
      <point x="1015" y="-137"/>
      <point x="1011" y="-140"/>
      <point x="1004" y="-147" type="curve"/>
    </contour>
    <contour>
      <point x="972" y="-38" type="line"/>
      <point x="1140" y="130" type="line"/>
      <point x="1124" y="41"/>
      <point x="1091" y="-43"/>
      <point x="1039" y="-107" type="curve"/>
    </contour>
    <contour>
      <point x="103" y="257" type="line"/>
      <point x="581" y="735" type="line"/>
      <point x="618" y="737" type="line"/>
      <point x="102" y="221" type="line"/>
    </contour>
    <contour>
      <point x="107" y="298" type="line"/>
      <point x="121" y="387"/>
      <point x="155" y="469"/>
      <point x="208" y="534" type="curve"/>
      <point x="276" y="467" type="line"/>
    </contour>
    <contour>
      <point x="295" y="486" type="line"/>
      <point x="225" y="556" type="line"/>
      <point x="230" y="563"/>
      <point x="238" y="570"/>
      <point x="243" y="575" type="curve"/>
      <point x="314" y="505" type="line"/>
    </contour>
    <contour>
      <point x="334" y="525" type="line"/>
      <point x="262" y="595" type="line"/>
      <point x="269" y="602"/>
      <point x="273" y="605"/>
      <point x="281" y="612" type="curve"/>
      <point x="352" y="543" type="line"/>
    </contour>
    <contour>
      <point x="371" y="562" type="line"/>
      <point x="303" y="629" type="line"/>
      <point x="366" y="682"/>
      <point x="450" y="715"/>
      <point x="540" y="730" type="curve"/>
    </contour>
  </outline>
</glyph>
<glyph name="fatha_alefabove-ar" format="1">
  <advance width="228"/>
  <outline>
    <component base="fatha-ar"/>
    <component base="alefabove-ar" xOffset="-67" yOffset="21"/>
    <contour>
      <point x="126" y="527" type="move" name="_top"/>
    </contour>
    <contour>
      <point x="-22" y="827" type="move" name="top"/>
    </contour>
  </outline>
</glyph>
<glyph name="fehAfrican-ar.medi" format="1">
  <advance width="479"/>
  <outline>
    <component base="fehDotless-ar.medi"/>
    <component base="dotbelow-ar" xOffset="149" yOffset="-30"/>
    <contour>
      <point x="257" y="-240" type="move" name="bottom"/>
    </contour>
    <contour>
      <point x="123" y="500" type="move" name="top"/>
    </contour>
  </outline>
</glyph>
<glyph name="fehDotmovedbelow-ar.fina.ss01" format="1">
  <advance width="504"/>
  <outline>
    <component base="fehDotless-ar.fina"/>
    <contour>
      <point x="258" y="-30" type="move" name="bottom"/>
    </contour>
    <contour>
      <point x="124" y="500" type="move" name="top"/>
    </contour>
  </outline>
</glyph>
<glyph name="five.lf" format="1">
  <advance width="478"/>
  <outline>
    <contour>
      <point x="46" y="364" type="curve"/>
      <point x="66" y="337" type="line"/>
      <point x="92" y="342"/>
      <point x="125" y="344"/>
      <point x="157" y="344" type="curve" smooth="yes"/>
      <point x="292" y="344"/>
      <point x="357" y="266"/>
      <point x="357" y="188" type="curve" smooth="yes"/>
      <point x="357" y="110"/>
      <point x="292" y="32"/>
      <point x="170" y="32" type="curve" smooth="yes"/>
      <point x="124" y="32"/>
      <point x="82" y="39"/>
      <point x="41" y="51" type="curve"/>
      <point x="35" y="18" type="line"/>
      <point x="87" y="-1"/>
      <point x="138" y="-10"/>
      <point x="186" y="-10" type="curve" smooth="yes"/>
      <point x="333" y="-10"/>
      <point x="450" y="75"/>
      <point x="450" y="225" type="curve" smooth="yes"/>
      <point x="450" y="321"/>
      <point x="364" y="433"/>
      <point x="182" y="433" type="curve" smooth="yes"/>
      <point x="163" y="433"/>
      <point x="123" y="432"/>
      <point x="102" y="430" type="curve"/>
      <point x="105" y="466"/>
      <point x="110" y="541"/>
      <point x="119" y="582" type="curve"/>
      <point x="187" y="582"/>
      <point x="325" y="582"/>
      <point x="406" y="557" type="curve"/>
      <point x="410" y="660" type="line"/>
      <point x="370" y="659"/>
      <point x="298" y="658"/>
      <point x="251" y="658" type="curve" smooth="yes"/>
      <point x="162" y="658"/>
      <point x="127" y="659"/>
      <point x="69" y="660" type="curve"/>
      <point x="68" y="583"/>
      <point x="61" y="457"/>
    </contour>
  </outline>
</glyph>
<glyph name="four-ar.alt" format="1">
  <advance width="350"/>
  <outline>
    <contour>
      <point x="266" y="443" type="curve"/>
      <point x="264" y="457" type="line"/>
      <point x="217" y="460"/>
      <point x="202" y="458"/>
      <point x="192" y="453" type="curve"/>
      <point x="116" y="417"/>
      <point x="58" y="358"/>
      <point x="58" y="319" type="curve" smooth="yes"/>
      <point x="58" y="282"/>
      <point x="122" y="231"/>
      <point x="207" y="231" type="curve"/>
      <point x="239" y="265" type="line"/>
      <point x="83" y="200"/>
      <point x="50" y="112"/>
      <point x="50" y="71" type="curve" smooth="yes"/>
      <point x="50" y="47"/>
      <point x="111" y="-12"/>
      <point x="261" y="-11" type="curve"/>
      <point x="284" y="2"/>
      <point x="306" y="47"/>
      <point x="306" y="71" type="curve"/>
      <point x="161" y="71"/>
      <point x="103" y="104"/>
      <point x="103" y="119" type="curve" smooth="yes"/>
      <point x="103" y="141"/>
      <point x="153" y="186"/>
      <point x="243" y="223" type="curve"/>
      <point x="264" y="244"/>
      <point x="274" y="273"/>
      <point x="280" y="297" type="curve"/>
      <point x="198" y="299"/>
      <point x="112" y="336"/>
      <point x="112" y="353" type="curve" smooth="yes"/>
      <point x="112" y="363"/>
      <point x="149" y="404"/>
    </contour>
  </outline>
</glyph>
<glyph name="ghain-ar.medi.alt" format="1">
  <advance width="368"/>
  <outline>
    <component base="ain-ar.medi.alt"/>
    <component base="dotabove-ar" xOffset="42" yOffset="441"/>
    <contour>
      <point x="151" y="-30" type="move" name="bottom"/>
    </contour>
    <contour>
      <point x="146" y="953" type="move" name="top"/>
    </contour>
  </outline>
</glyph>
<glyph name="hah-ar.fina.alt" format="1">
  <advance width="537"/>
  <outline>
    <contour>
      <point x="217" y="-479" type="curve"/>
      <point x="218" y="-478"/>
      <point x="218" y="-478"/>
      <point x="219" y="-478" type="curve" smooth="yes"/>
      <point x="223" y="-476"/>
      <point x="228" y="-472"/>
      <point x="228" y="-465" type="curve" smooth="yes"/>
      <point x="228" y="-464"/>
      <point x="228" y="-462"/>
      <point x="228" y="-461" type="curve"/>
      <point x="137" y="-389"/>
      <point x="79" y="-277"/>
      <point x="79" y="-179" type="curve" smooth="yes"/>
      <point x="79" y="23"/>
      <point x="324" y="18"/>
      <point x="492" y="0" type="curve"/>
      <point x="489" y="51"/>
      <point x="486" y="85"/>
      <point x="456" y="87" type="curve" smooth="yes"/>
      <point x="405" y="91" type="line" smooth="yes"/>
      <point x="371" y="93"/>
      <point x="368" y="94"/>
      <point x="368" y="148" type="curve" smooth="yes"/>
      <point x="368" y="204"/>
      <point x="370" y="207"/>
      <point x="429" y="207" type="curve" smooth="yes"/>
      <point x="538" y="207"/>
      <point x="547" y="207"/>
      <point x="557" y="207" type="curve"/>
      <point x="557" y="297" type="line"/>
      <point x="517" y="297" type="line"/>
      <point x="407" y="297"/>
      <point x="229" y="296"/>
      <point x="90" y="297" type="curve"/>
      <point x="90" y="274"/>
      <point x="106" y="195"/>
      <point x="159" y="200" type="curve" smooth="yes"/>
      <point x="305" y="214"/>
      <point x="304" y="217"/>
      <point x="307" y="126" type="curve" smooth="yes"/>
      <point x="308" y="94"/>
      <point x="308" y="94"/>
      <point x="258" y="85" type="curve" smooth="yes"/>
      <point x="182" y="71"/>
      <point x="0" y="33"/>
      <point x="0" y="-159" type="curve" smooth="yes"/>
      <point x="0" y="-270"/>
      <point x="67" y="-392"/>
    </contour>
    <contour>
      <point x="340" y="-52" type="move" name="bottom"/>
    </contour>
    <contour>
      <point x="337" y="344" type="move" name="top"/>
    </contour>
  </outline>
</glyph>
<glyph name="hamzabelow-ar.nostem" format="1">
  <advance width="200"/>
  <outline>
    <contour>
      <point x="70" y="144" type="line"/>
      <point x="70" y="133"/>
      <point x="70" y="111"/>
      <point x="75" y="111" type="curve"/>
      <point x="177" y="111" type="line"/>
      <point x="177" y="120"/>
      <point x="176" y="144"/>
      <point x="172" y="144" type="curve" smooth="yes"/>
    </contour>
    <contour>
      <point x="66" y="89" type="line"/>
      <point x="66" y="78"/>
      <point x="66" y="56"/>
      <point x="71" y="56" type="curve"/>
      <point x="178" y="56" type="line"/>
      <point x="178" y="65"/>
      <point x="177" y="89"/>
      <point x="173" y="89" type="curve" smooth="yes"/>
    </contour>
    <contour>
      <point x="62" y="33" type="line"/>
      <point x="62" y="22"/>
      <point x="62" y="0"/>
      <point x="67" y="0" type="curve"/>
      <point x="180" y="0" type="line"/>
      <point x="180" y="9"/>
      <point x="179" y="33"/>
      <point x="175" y="33" type="curve" smooth="yes"/>
    </contour>
    <contour>
      <point x="120" y="158" type="move" name="_bottom"/>
    </contour>
    <contour>
      <point x="41" y="-43" type="move" name="bottom"/>
    </contour>
  </outline>
</glyph>
<glyph name="hamzabelowKasratan-ar" format="1">
  <advance width="229"/>
  <outline>
    <component base="hamzabelow-ar" xOffset="40"/>
    <component base="kasratan-ar" xOffset="-44" yOffset="-120"/>
    <contour>
      <point x="118" y="-18" type="move" name="_bottom"/>
    </contour>
    <contour>
      <point x="78" y="-318" type="move" name="bottom"/>
    </contour>
  </outline>
</glyph>
<glyph name="jeem-ar.fina.alt" format="1">
  <advance width="537"/>
  <outline>
    <component base="hah-ar.fina.alt"/>
    <component base="dotbelow-ar" xOffset="231" yOffset="-52"/>
    <contour>
      <point x="336" y="-245" type="move" name="bottom"/>
    </contour>
    <contour>
      <point x="337" y="344" type="move" name="top"/>
    </contour>
  </outline>
</glyph>
<glyph name="jeem-ar.fina.ss07" format="1">
  <advance width="537"/>
  <outline>
    <component base="hah-ar.fina"/>
    <component base="dotbelow-ar" xOffset="218" yOffset="-272"/>
    <contour>
      <point x="325" y="-464" type="move" name="bottom"/>
    </contour>
    <contour>
      <point x="336" y="130" type="move" name="top"/>
    </contour>
  </outline>
</glyph>
<glyph name="jeem-ar.medi.ss07" format="1">
  <advance width="465"/>
  <outline>
    <component base="hah-ar.medi"/>
    <component base="dotbelow-ar" xOffset="142" yOffset="-40"/>
    <contour>
      <point x="306" y="-240" type="move" name="bottom"/>
    </contour>
    <contour>
      <point x="272" y="358" type="move" name="top"/>
    </contour>
  </outline>
</glyph>
<glyph name="kehehThreedotsabove-ar.medi.ss05" format="1">
  <advance width="785"/>
  <outline>
    <component base="keheh-ar.medi"/>
    <component base="threedots-ar.small" xOffset="96" yOffset="469"/>
    <contour>
      <point x="373" y="-40" type="move" name="bottom"/>
    </contour>
    <contour>
      <point x="216" y="690" type="move" name="top"/>
    </contour>
  </outline>
</glyph>
<glyph name="kehehThreedotsabove-ar.ss05" format="1">
  <advance width="757"/>
  <outline>
    <component base="keheh-ar"/>
    <component base="threedots-ar.small" xOffset="96" yOffset="469"/>
    <contour>
      <point x="375" y="-40" type="move" name="bottom"/>
    </contour>
    <contour>
      <point x="216" y="690" type="move" name="top"/>
    </contour>
  </outline>
</glyph>
<glyph name="khah-ar.medi.ss07" format="1">
  <advance width="465"/>
  <outline>
    <component base="hah-ar.medi"/>
    <component base="dotabove-ar" xOffset="163" yOffset="19"/>
    <contour>
      <point x="291" y="-30" type="move" name="bottom"/>
    </contour>
    <contour>
      <point x="269" y="553" type="move" name="top"/>
    </contour>
  </outline>
</glyph>
<glyph name="lam-ar.medi.alt" format="1">
  <advance width="227"/>
  <outline>
    <contour>
      <point x="-10" y="556" type="curve"/>
      <point x="21" y="460"/>
      <point x="49" y="297"/>
      <point x="30" y="297" type="curve" smooth="yes"/>
      <point x="19" y="297"/>
      <point x="-10" y="297"/>
      <point x="-20" y="297" type="curve"/>
      <point x="-20" y="207" type="line"/>
      <point x="-12" y="207"/>
      <point x="17" y="207"/>
      <point x="27" y="207" type="curve" smooth="yes"/>
      <point x="42" y="207"/>
      <point x="43" y="201"/>
      <point x="45" y="158" type="curve" smooth="yes"/>
      <point x="49" y="74"/>
      <point x="59" y="0"/>
      <point x="88" y="0" type="curve" smooth="yes"/>
      <point x="247" y="0" type="line"/>
      <point x="247" y="90" type="line"/>
      <point x="149" y="90" type="line" smooth="yes"/>
      <point x="117" y="90"/>
      <point x="103" y="104"/>
      <point x="103" y="254" type="curve" smooth="yes"/>
      <point x="103" y="348"/>
      <point x="100" y="541"/>
      <point x="87" y="582" type="curve"/>
      <point x="82" y="589"/>
      <point x="78" y="593"/>
      <point x="75" y="593" type="curve" smooth="yes"/>
      <point x="59" y="593"/>
      <point x="19" y="574"/>
    </contour>
    <contour>
      <point x="89" y="-34" type="move" name="bottom"/>
    </contour>
    <contour>
      <point x="31" y="633" type="move" name="top"/>
    </contour>
  </outline>
</glyph>
<glyph name="nine.latn" format="1">
  <advance width="523"/>
  <outline>
    <contour>
      <point x="389" y="285" type="curve"/>
      <point x="389" y="333" type="line"/>
      <point x="372" y="319"/>
      <point x="331" y="294"/>
      <point x="268" y="294" type="curve" smooth="yes"/>
      <point x="177" y="294"/>
      <point x="134" y="383"/>
      <point x="134" y="467" type="curve" smooth="yes"/>
      <point x="134" y="543"/>
      <point x="168" y="620"/>
      <point x="246" y="620" type="curve" smooth="yes"/>
      <point x="315" y="620"/>
      <point x="388" y="545"/>
      <point x="388" y="398" type="curve" smooth="yes"/>
      <point x="388" y="278"/>
      <point x="327" y="114"/>
      <point x="84" y="24" type="curve"/>
      <point x="110" y="-9" type="line"/>
      <point x="390" y="81"/>
      <point x="483" y="276"/>
      <point x="483" y="414" type="curve" smooth="yes"/>
      <point x="483" y="551"/>
      <point x="406" y="665"/>
      <point x="266" y="665" type="curve" smooth="yes"/>
      <point x="111" y="665"/>
      <point x="40" y="554"/>
      <point x="40" y="444" type="curve" smooth="yes"/>
      <point x="40" y="339"/>
      <point x="105" y="234"/>
      <point x="234" y="234" type="curve" smooth="yes"/>
      <point x="298" y="234"/>
      <point x="349" y="264"/>
    </contour>
  </outline>
</glyph>
<glyph name="noon-ar.alt" format="1">
  <advance width="812"/>
  <outline>
    <component base="noonghunna-ar"/>
    <component base="dotabove-ar" xOffset="268" yOffset="-122"/>
    <contour>
      <point x="376" y="-260" type="move" name="bottom"/>
    </contour>
    <contour>
      <point x="382" y="407" type="move" name="top"/>
    </contour>
  </outline>
</glyph>
<glyph name="noon-ar.fina.alt.ss01" format="1">
  <advance width="792"/>
  <outline>
    <component base="noonghunna-ar.fina"/>
    <contour>
      <point x="380" y="-260" type="move" name="bottom"/>
    </contour>
    <contour>
      <point x="377" y="297" type="move" name="top"/>
    </contour>
  </outline>
</glyph>
<glyph name="noonTwodotsbelow-ar.alt" format="1">
  <advance width="812"/>
  <outline>
    <component base="noonghunna-ar"/>
    <component base="dotabove-ar" xOffset="268" yOffset="-122"/>
    <component base="twodotshorizontalbelow-ar" xOffset="192" yOffset="-269"/>
    <contour>
      <point x="380" y="-463" type="move" name="bottom"/>
    </contour>
    <contour>
      <point x="382" y="407" type="move" name="top"/>
    </contour>
  </outline>
</glyph>
<glyph name="noonTwodotsbelow-ar.fina.alt" format="1">
  <advance width="792"/>
  <outline>
    <component base="noonghunna-ar.fina"/>
    <component base="dotabove-ar" xOffset="267" yOffset="-118"/>
    <component base="twodotshorizontalbelow-ar" xOffset="159" yOffset="-279"/>
    <contour>
      <point x="342" y="-464" type="move" name="bottom"/>
    </contour>
    <contour>
      <point x="371" y="402" type="move" name="top"/>
    </contour>
  </outline>
</glyph>
<glyph name="noonTwodotsbelow-ar.fina.alt2" format="1">
  <advance width="792"/>
  <outline>
    <component base="noonghunna-ar.fina"/>
    <component base="dotabove-ar" xOffset="267" yOffset="-118"/>
    <component base="twodotshorizontalbelow-ar" xOffset="159" yOffset="-279"/>
    <contour>
      <point x="342" y="-477" type="move" name="bottom"/>
    </contour>
    <contour>
      <point x="377" y="407" type="move" name="top"/>
    </contour>
  </outline>
</glyph>
<glyph name="noonTwodotsbelow-ar.fina" format="1">
  <advance width="792"/>
  <outline>
    <component base="noon-ar.fina.ss01"/>
    <component base="twodotshorizontalbelow-ar" xOffset="149" yOffset="-269"/>
    <contour>
      <point x="332" y="-457" type="move" name="bottom"/>
    </contour>
    <contour>
      <point x="377" y="297" type="move" name="top"/>
    </contour>
  </outline>
</glyph>
<glyph name="noonTwodotsbelow-ar.init" format="1">
  <advance width="277"/>
  <outline>
    <component base="noon-ar.init"/>
    <component base="twodotshorizontalbelow-ar" xOffset="-66" yOffset="-39"/>
    <contour>
      <point x="124" y="-212" type="move" name="bottom"/>
    </contour>
    <contour>
      <point x="67" y="500" type="move" name="top"/>
    </contour>
  </outline>
</glyph>
<glyph name="noonghunna-ar.alt" format="1">
  <advance width="812"/>
  <outline>
    <component base="noonghunna-ar"/>
    <contour>
      <point x="373" y="-270" type="move" name="bottom"/>
    </contour>
    <contour>
      <point x="377" y="197" type="move" name="top"/>
    </contour>
  </outline>
</glyph>
<glyph name="noonghunna-ar.medi" format="1">
  <advance width="289"/>
  <outline>
    <component base="behDotless-ar.medi"/>
    <contour>
      <point x="123" y="-30" type="move" name="bottom"/>
    </contour>
    <contour>
      <point x="105" y="310" type="move" name="top"/>
    </contour>
  </outline>
</glyph>
<glyph name="nyeh-ar.fina.alt" format="1">
  <advance width="537"/>
  <outline>
    <component base="hah-ar.fina.alt"/>
    <component base="twodotshorizontalbelow-ar" xOffset="159" yOffset="-51"/>
    <contour>
      <point x="341" y="-214" type="move" name="bottom"/>
    </contour>
    <contour>
      <point x="332" y="358" type="move" name="top"/>
    </contour>
  </outline>
</glyph>
<glyph name="qafAfrican-ar.init" format="1">
  <advance width="453"/>
  <outline>
    <component base="fehDotless-ar.init"/>
    <component base="dotabove-ar" xOffset="5" yOffset="181"/>
    <contour>
      <point x="248" y="-30" type="move" name="bottom"/>
    </contour>
    <contour>
      <point x="108" y="710" type="move" name="top"/>
    </contour>
  </outline>
</glyph>
<glyph name="qafDotabove-ar.medi" format="1">
  <advance width="479"/>
  <outline>
    <component base="fehDotless-ar.medi"/>
    <component base="dotabove-ar" xOffset="25" yOffset="179"/>
    <contour>
      <point x="258" y="-30" type="move" name="bottom"/>
    </contour>
    <contour>
      <point x="124" y="700" type="move" name="top"/>
    </contour>
  </outline>
</glyph>
<glyph name="qafDotabove-ar.ss01" format="1">
  <advance width="491"/>
  <outline>
    <component base="fehDotless-ar"/>
    <contour>
      <point x="268" y="-30" type="move" name="bottom"/>
    </contour>
    <contour>
      <point x="144" y="500" type="move" name="top"/>
    </contour>
  </outline>
</glyph>
<glyph name="qafDotless-ar.init" format="1">
  <advance width="453"/>
  <outline>
    <component base="fehDotless-ar.init"/>
    <contour>
      <point x="248" y="-30" type="move" name="bottom"/>
    </contour>
    <contour>
      <point x="114" y="500" type="move" name="top"/>
    </contour>
  </outline>
</glyph>
<glyph name="qafDotless-ar.medi" format="1">
  <advance width="479"/>
  <outline>
    <component base="fehDotless-ar.medi"/>
    <contour>
      <point x="258" y="-30" type="move" name="bottom"/>
    </contour>
    <contour>
      <point x="134" y="498" type="move" name="top"/>
    </contour>
  </outline>
</glyph>
<glyph name="qafThreedotsabove-ar.fina" format="1">
  <advance width="723"/>
  <outline>
    <component base="qafDotless-ar.fina"/>
    <component base="threedotsupabove-ar" xOffset="188" yOffset="9"/>
    <contour>
      <point x="641" y="-123" type="move" name="bottom"/>
    </contour>
    <contour>
      <point x="346" y="660" type="move" name="top"/>
    </contour>
  </outline>
</glyph>
<glyph name="qafThreedotsabove-ar.init.ss05" format="1">
  <advance width="453"/>
  <outline>
    <component base="fehDotless-ar.init"/>
    <component base="dotabove-ar" xOffset="14" yOffset="164"/>
    <component base="threedots-ar.small" xOffset="5" yOffset="670"/>
    <contour>
      <point x="248" y="-30" type="move" name="bottom"/>
    </contour>
    <contour>
      <point x="124" y="890" type="move" name="top"/>
    </contour>
  </outline>
</glyph>
<glyph name="qafThreedotsabove-ar.medi" format="1">
  <advance width="479"/>
  <outline>
    <component base="fehDotless-ar.medi"/>
    <component base="threedotsupabove-ar" xOffset="-31" yOffset="203"/>
    <contour>
      <point x="258" y="-30" type="move" name="bottom"/>
    </contour>
    <contour>
      <point x="111" y="830" type="move" name="top"/>
    </contour>
  </outline>
</glyph>
<glyph name="qafThreedotsabove-ar.medi.ss05" format="1">
  <advance width="479"/>
  <outline>
    <component base="fehDotless-ar.medi"/>
    <component base="dotabove-ar" xOffset="14" yOffset="164"/>
    <component base="threedots-ar.small" xOffset="5" yOffset="670"/>
    <contour>
      <point x="258" y="-30" type="move" name="bottom"/>
    </contour>
    <contour>
      <point x="124" y="890" type="move" name="top"/>
    </contour>
  </outline>
</glyph>
<glyph name="sad-ar.alt" format="1">
  <advance width="1226"/>
  <outline>
    <component base="sad-ar"/>
    <contour>
      <point x="858" y="-30" type="move" name="bottom"/>
    </contour>
    <contour>
      <point x="867" y="424" type="move" name="top"/>
    </contour>
  </outline>
</glyph>
<glyph name="seven.latn" format="1">
  <advance width="479"/>
  <outline>
    <contour>
      <point x="105" y="575" type="curve"/>
      <point x="161" y="577"/>
      <point x="211" y="577"/>
      <point x="257" y="577" type="curve" smooth="yes"/>
      <point x="304" y="577"/>
      <point x="346" y="577"/>
      <point x="385" y="575" type="curve"/>
      <point x="276" y="383"/>
      <point x="208" y="186"/>
      <point x="166" y="0" type="curve"/>
      <point x="265" y="0" type="line"/>
      <point x="285" y="167"/>
      <point x="329" y="381"/>
      <point x="474" y="632" type="curve"/>
      <point x="453" y="660" type="line"/>
      <point x="389" y="658"/>
      <point x="318" y="657"/>
      <point x="248" y="657" type="curve" smooth="yes"/>
      <point x="178" y="657"/>
      <point x="109" y="658"/>
      <point x="48" y="660" type="curve"/>
      <point x="48" y="609"/>
      <point x="44" y="548"/>
      <point x="40" y="470" type="curve"/>
      <point x="70" y="470" type="line"/>
      <point x="81" y="503"/>
      <point x="92" y="542"/>
    </contour>
  </outline>
</glyph>
<glyph name="shaddaDamma-ar" format="1">
  <advance width="279"/>
  <outline>
    <component base="shadda-ar" xOffset="16"/>
    <component base="damma-ar" xOffset="4" yOffset="203"/>
    <contour>
      <point x="138" y="546" type="move" name="_top"/>
    </contour>
    <contour>
      <point x="133" y="943" type="move" name="top"/>
    </contour>
  </outline>
</glyph>
<glyph name="sheen-ar.medi.alt" format="1">
  <advance width="466"/>
  <outline>
    <component base="seen-ar.medi.alt"/>
    <component base="threedotsupabove-ar" xOffset="56" yOffset="158"/>
    <contour>
      <point x="231" y="-30" type="move" name="bottom"/>
    </contour>
    <contour>
      <point x="216" y="778" type="move" name="top"/>
    </contour>
  </outline>
</glyph>
<glyph name="tahThreedots-ar.init.ss05" format="1">
  <advance width="759"/>
  <outline>
    <component base="tah-ar.init"/>
    <component base="threedots-ar.small" xOffset="282" yOffset="407"/>
    <contour>
      <point x="408" y="-30" type="move" name="bottom"/>
    </contour>
    <contour>
      <point x="388" y="640" type="move" name="top"/>
    </contour>
  </outline>
</glyph>
<glyph name="tahThreedots-ar.medi.ss05" format="1">
  <advance width="733"/>
  <outline>
    <component base="tah-ar.medi"/>
    <component base="threedots-ar.small" xOffset="272" yOffset="407"/>
    <contour>
      <point x="398" y="-30" type="move" name="bottom"/>
    </contour>
    <contour>
      <point x="388" y="640" type="move" name="top"/>
    </contour>
  </outline>
</glyph>
<glyph name="thal-ar.fina.alt" format="1">
  <advance width="434"/>
  <outline>
    <component base="thal-ar.fina"/>
    <contour>
      <point x="306" y="-60" type="move" name="bottom"/>
    </contour>
    <contour>
      <point x="259" y="484" type="move" name="top"/>
    </contour>
  </outline>
</glyph>
<glyph name="theh-ar.medi.alt" format="1">
  <advance width="207"/>
  <outline>
    <component base="behDotless-ar.medi.alt"/>
    <component base="threedotsupabove-ar" xOffset="-125" yOffset="191"/>
    <contour>
      <point x="142" y="-40" type="move" name="bottom"/>
    </contour>
    <contour>
      <point x="24" y="834" type="move" name="top"/>
    </contour>
  </outline>
</glyph>
<glyph name="threedotsdownabove-ar" format="1">
  <advance width="321"/>
  <outline>
    <component base="threedotsupabove-ar" xScale="-1" yScale="-1" xOffset="325" yOffset="893"/>
    <contour>
      <point x="170" y="283" type="move" name="_top"/>
    </contour>
  </outline>
</glyph>
<glyph name="threedotsupbelow-ar" format="1">
  <advance width="321"/>
  <outline>
    <component base="threedotsupabove-ar" yOffset="-630"/>
    <contour>
      <point x="152" y="0" type="move" name="_bottom"/>
    </contour>
  </outline>
</glyph>
<glyph name="yeh-farsi.fina.ss05" format="1">
  <advance width="793"/>
  <outline>
    <component base="alefMaksura-ar.fina"/>
    <component base="threedots-ar.small" xOffset="335" yOffset="291"/>
    <contour>
      <point x="633" y="-110" type="move" name="bottom"/>
    </contour>
    <contour>
      <point x="447" y="520" type="move" name="top"/>
    </contour>
  </outline>
</glyph>
<glyph name="yeh-farsi.init.ss05" format="1">
  <advance width="277"/>
  <outline>
    <component base="behDotless-ar.init"/>
    <component base="twodotshorizontalbelow-ar" xOffset="-99" yOffset="-29"/>
    <component base="threedots-ar.small" xOffset="-10" yOffset="312"/>
    <contour>
      <point x="84" y="-212" type="move" name="bottom"/>
    </contour>
    <contour>
      <point x="97" y="550" type="move" name="top"/>
    </contour>
  </outline>
</glyph>
<glyph name="yehThreedotsbelow-ar.fina" format="1">
  <advance width="793"/>
  <outline>
    <component base="alefMaksura-ar.fina"/>
    <component base="threedotsdownbelow-ar" xOffset="-28" yOffset="-298"/>
    <contour>
      <point x="124" y="-650" type="move" name="bottom"/>
    </contour>
    <contour>
      <point x="455" y="291" type="move" name="top"/>
    </contour>
  </outline>
</glyph>
<glyph name="yehThreedotsbelow-ar.medi" format="1">
  <advance width="289"/>
  <outline>
    <component base="alefMaksura-ar.medi"/>
    <component base="threedotsdownbelow-ar" xOffset="-41" yOffset="-20"/>
    <contour>
      <point x="112" y="304" type="move" name="top"/>
    </contour>
  </outline>
</glyph>
<glyph name="yehTwodotsbelowDotabove-ar.medi" format="1">
  <advance width="289"/>
  <outline>
    <component base="yeh-ar.medi"/>
    <component base="dotabove-ar" xOffset="3" yOffset="-15"/>
    <contour>
      <point x="146" y="-210" type="move" name="bottom"/>
    </contour>
    <contour>
      <point x="116" y="499" type="move" name="top"/>
    </contour>
  </outline>
</glyph>
<glyph name="yehTwodotsbelowHamzaabove-ar.init" format="1">
  <advance width="277"/>
  <outline>
    <component base="behDotless-ar.init"/>
    <component base="twodotshorizontalbelow-ar" xOffset="-99" yOffset="-29"/>
    <component base="hamzaabove-ar" xOffset="22" yOffset="-205"/>
    <contour>
      <point x="84" y="-212" type="move" name="bottom"/>
    </contour>
    <contour>
      <point x="115" y="500" type="move" name="top"/>
    </contour>
  </outline>
</glyph>
<glyph name="yehTwodotsbelowHamzaabove-ar.medi" format="1">
  <advance width="289"/>
  <outline>
    <component base="yeh-ar.medi"/>
    <component base="hamzaabove-ar" xOffset="35" yOffset="-211"/>
    <contour>
      <point x="109" y="-210" type="move" name="bottom"/>
    </contour>
    <contour>
      <point x="127" y="500" type="move" name="top"/>
    </contour>
  </outline>
</glyph>
